<svg width="22" height="22" viewBox="0 0 22 22" fill="none" xmlns="http://www.w3.org/2000/svg">
    <path
        d="M16.9202 11.2527L12.4094 9.59062L10.7474 5.07977C10.6627 4.85026 10.5097 4.65222 10.3091 4.51234C10.1084 4.37246 9.86963 4.29747 9.62501 4.29747C9.38039 4.29747 9.14166 4.37246 8.94097 4.51234C8.74029 4.65222 8.58732 4.85026 8.50267 5.07977L6.84064 9.59062L2.32978 11.2527C2.10027 11.3373 1.90224 11.4903 1.76236 11.691C1.62248 11.8916 1.54749 12.1304 1.54749 12.375C1.54749 12.6196 1.62248 12.8584 1.76236 13.059C1.90224 13.2597 2.10027 13.4127 2.32978 13.4973L6.84064 15.1594L8.50267 19.6702C8.58732 19.8997 8.74029 20.0978 8.94097 20.2377C9.14166 20.3775 9.38039 20.4525 9.62501 20.4525C9.86963 20.4525 10.1084 20.3775 10.3091 20.2377C10.5097 20.0978 10.6627 19.8997 10.7474 19.6702L12.4094 15.1594L16.9202 13.4973C17.1498 13.4127 17.3478 13.2597 17.4877 13.059C17.6276 12.8584 17.7025 12.6196 17.7025 12.375C17.7025 12.1304 17.6276 11.8916 17.4877 11.691C17.3478 11.4903 17.1498 11.3373 16.9202 11.2527ZM16.5636 12.5297L11.8302 14.2742C11.7601 14.3 11.6964 14.3407 11.6436 14.3935C11.5907 14.4464 11.55 14.51 11.5242 14.5802L9.7797 19.3136C9.76798 19.3452 9.74688 19.3724 9.71922 19.3916C9.69157 19.4109 9.6587 19.4212 9.62501 19.4212C9.59133 19.4212 9.55846 19.4109 9.5308 19.3916C9.50315 19.3724 9.48205 19.3452 9.47033 19.3136L7.7258 14.5802C7.70001 14.51 7.65929 14.4464 7.60647 14.3935C7.55364 14.3407 7.48997 14.3 7.41986 14.2742L2.68642 12.5297C2.65484 12.518 2.62761 12.4969 2.60838 12.4692C2.58915 12.4416 2.57884 12.4087 2.57884 12.375C2.57884 12.3413 2.58915 12.3084 2.60838 12.2808C2.62761 12.2531 2.65484 12.232 2.68642 12.2203L7.41986 10.4758C7.48997 10.45 7.55364 10.4093 7.60647 10.3565C7.65929 10.3036 7.70001 10.24 7.7258 10.1698L9.47033 5.43641C9.48205 5.40483 9.50315 5.37759 9.5308 5.35836C9.55846 5.33913 9.59133 5.32882 9.62501 5.32882C9.6587 5.32882 9.69157 5.33913 9.71922 5.35836C9.74688 5.37759 9.76798 5.40483 9.7797 5.43641L11.5242 10.1698C11.55 10.24 11.5907 10.3036 11.6436 10.3565C11.6964 10.4093 11.7601 10.45 11.8302 10.4758L16.5636 12.2203C16.5952 12.232 16.6224 12.2531 16.6417 12.2808C16.6609 12.3084 16.6712 12.3413 16.6712 12.375C16.6712 12.4087 16.6609 12.4416 16.6417 12.4692C16.6224 12.4969 16.5952 12.518 16.5636 12.5297ZM12.5469 3.4375C12.5469 3.30075 12.6012 3.1696 12.6979 3.0729C12.7946 2.9762 12.9258 2.92187 13.0625 2.92187H14.6094V1.375C14.6094 1.23825 14.6637 1.1071 14.7604 1.0104C14.8571 0.9137 14.9883 0.859375 15.125 0.859375C15.2618 0.859375 15.3929 0.9137 15.4896 1.0104C15.5863 1.1071 15.6406 1.23825 15.6406 1.375V2.92187H17.1875C17.3243 2.92187 17.4554 2.9762 17.5521 3.0729C17.6488 3.1696 17.7031 3.30075 17.7031 3.4375C17.7031 3.57425 17.6488 3.7054 17.5521 3.8021C17.4554 3.8988 17.3243 3.95312 17.1875 3.95312H15.6406V5.5C15.6406 5.63675 15.5863 5.7679 15.4896 5.8646C15.3929 5.9613 15.2618 6.01562 15.125 6.01562C14.9883 6.01562 14.8571 5.9613 14.7604 5.8646C14.6637 5.7679 14.6094 5.63675 14.6094 5.5V3.95312H13.0625C12.9258 3.95312 12.7946 3.8988 12.6979 3.8021C12.6012 3.7054 12.5469 3.57425 12.5469 3.4375ZM21.1406 7.5625C21.1406 7.69925 21.0863 7.8304 20.9896 7.9271C20.8929 8.0238 20.7618 8.07812 20.625 8.07812H19.7656V8.9375C19.7656 9.07425 19.7113 9.2054 19.6146 9.3021C19.5179 9.3988 19.3868 9.45312 19.25 9.45312C19.1133 9.45312 18.9821 9.3988 18.8854 9.3021C18.7887 9.2054 18.7344 9.07425 18.7344 8.9375V8.07812H17.875C17.7383 8.07812 17.6071 8.0238 17.5104 7.9271C17.4137 7.8304 17.3594 7.69925 17.3594 7.5625C17.3594 7.42575 17.4137 7.2946 17.5104 7.1979C17.6071 7.1012 17.7383 7.04687 17.875 7.04687H18.7344V6.1875C18.7344 6.05075 18.7887 5.9196 18.8854 5.8229C18.9821 5.7262 19.1133 5.67187 19.25 5.67187C19.3868 5.67187 19.5179 5.7262 19.6146 5.8229C19.7113 5.9196 19.7656 6.05075 19.7656 6.1875V7.04687H20.625C20.7618 7.04687 20.8929 7.1012 20.9896 7.1979C21.0863 7.2946 21.1406 7.42575 21.1406 7.5625Z"
        fill="black" />
</svg>
