<svg width="24" height="24" viewBox="0 0 24 24" fill="none" xmlns="http://www.w3.org/2000/svg">
<path d="M22.0377 17.7272L13.8384 3.4894C13.65 3.16919 13.3814 2.90372 13.0589 2.71928C12.7364 2.53483 12.3714 2.43781 11.9999 2.43781C11.6284 2.43781 11.2634 2.53483 10.941 2.71928C10.6185 2.90372 10.3498 3.16919 10.1615 3.4894L1.96212 17.7272C1.78163 18.0362 1.68652 18.3875 1.68652 18.7453C1.68652 19.1031 1.78163 19.4545 1.96212 19.7635C2.14792 20.0859 2.41626 20.3531 2.73953 20.5374C3.06281 20.7218 3.42936 20.8168 3.80149 20.8125H20.1984C20.5702 20.8164 20.9363 20.7213 21.2593 20.537C21.5822 20.3526 21.8502 20.0856 22.0359 19.7635C22.2166 19.4547 22.3121 19.1034 22.3124 18.7456C22.3127 18.3878 22.2179 18.0363 22.0377 17.7272ZM21.0618 19.2C20.9742 19.3507 20.848 19.4753 20.6962 19.5609C20.5445 19.6466 20.3726 19.6903 20.1984 19.6875H3.80149C3.62723 19.6903 3.45538 19.6466 3.30362 19.5609C3.15185 19.4753 3.02567 19.3507 2.93805 19.2C2.8561 19.0622 2.81284 18.9048 2.81284 18.7444C2.81284 18.584 2.8561 18.4266 2.93805 18.2888L11.1365 4.05096C11.2261 3.90207 11.3527 3.77889 11.504 3.69337C11.6553 3.60786 11.8261 3.56292 11.9999 3.56292C12.1737 3.56292 12.3445 3.60786 12.4958 3.69337C12.6471 3.77889 12.7737 3.90207 12.8634 4.05096L21.0627 18.2888C21.1446 18.4267 21.1877 18.5842 21.1875 18.7445C21.1873 18.9049 21.1439 19.0623 21.0618 19.2ZM11.4374 13.5V9.75002C11.4374 9.60084 11.4967 9.45777 11.6022 9.35228C11.7077 9.24679 11.8507 9.18752 11.9999 9.18752C12.1491 9.18752 12.2922 9.24679 12.3977 9.35228C12.5032 9.45777 12.5624 9.60084 12.5624 9.75002V13.5C12.5624 13.6492 12.5032 13.7923 12.3977 13.8978C12.2922 14.0033 12.1491 14.0625 11.9999 14.0625C11.8507 14.0625 11.7077 14.0033 11.6022 13.8978C11.4967 13.7923 11.4374 13.6492 11.4374 13.5ZM12.9374 16.875C12.9374 17.0604 12.8824 17.2417 12.7794 17.3959C12.6764 17.55 12.53 17.6702 12.3587 17.7412C12.1874 17.8121 11.9989 17.8307 11.817 17.7945C11.6352 17.7583 11.4681 17.669 11.337 17.5379C11.2059 17.4068 11.1166 17.2398 11.0804 17.0579C11.0443 16.8761 11.0628 16.6876 11.1338 16.5163C11.2047 16.345 11.3249 16.1985 11.4791 16.0955C11.6333 15.9925 11.8145 15.9375 11.9999 15.9375C12.2486 15.9375 12.487 16.0363 12.6628 16.2121C12.8387 16.3879 12.9374 16.6264 12.9374 16.875Z" fill="black"/>
</svg>
