<svg width="24" height="24" viewBox="0 0 24 24" fill="none" xmlns="http://www.w3.org/2000/svg">
<path d="M19.5 3.1875H4.5C4.1519 3.1875 3.81806 3.32578 3.57192 3.57192C3.32578 3.81806 3.1875 4.1519 3.1875 4.5V19.5C3.1875 19.8481 3.32578 20.1819 3.57192 20.4281C3.81806 20.6742 4.1519 20.8125 4.5 20.8125H19.5C19.8481 20.8125 20.1819 20.6742 20.4281 20.4281C20.6742 20.1819 20.8125 19.8481 20.8125 19.5V4.5C20.8125 4.1519 20.6742 3.81806 20.4281 3.57192C20.1819 3.32578 19.8481 3.1875 19.5 3.1875ZM4.3125 19.5V4.5C4.3125 4.45027 4.33225 4.40258 4.36742 4.36742C4.40258 4.33225 4.45027 4.3125 4.5 4.3125H19.5C19.5497 4.3125 19.5974 4.33225 19.6326 4.36742C19.6677 4.40258 19.6875 4.45027 19.6875 4.5V12.2062L17.0531 9.57187C16.9312 9.44998 16.7866 9.35329 16.6273 9.28733C16.4681 9.22136 16.2974 9.18741 16.125 9.18741C15.9526 9.18741 15.7819 9.22136 15.6227 9.28733C15.4634 9.35329 15.3188 9.44998 15.1969 9.57187L5.08125 19.6875H4.5C4.45027 19.6875 4.40258 19.6677 4.36742 19.6326C4.33225 19.5974 4.3125 19.5497 4.3125 19.5ZM19.5 19.6875H6.67219L15.9919 10.3678C16.0093 10.3504 16.03 10.3365 16.0527 10.3271C16.0755 10.3177 16.0999 10.3128 16.1245 10.3128C16.1492 10.3128 16.1736 10.3177 16.1963 10.3271C16.2191 10.3365 16.2398 10.3504 16.2572 10.3678L19.6875 13.7972V19.5C19.6875 19.5497 19.6677 19.5974 19.6326 19.6326C19.5974 19.6677 19.5497 19.6875 19.5 19.6875ZM9 11.0625C9.40792 11.0625 9.80669 10.9415 10.1459 10.7149C10.485 10.4883 10.7494 10.1662 10.9055 9.78928C11.0616 9.41241 11.1025 8.99771 11.0229 8.59763C10.9433 8.19754 10.7469 7.83004 10.4584 7.54159C10.17 7.25315 9.80246 7.05671 9.40237 6.97713C9.00229 6.89755 8.58759 6.93839 8.21072 7.0945C7.83384 7.2506 7.51172 7.51496 7.28509 7.85414C7.05846 8.19331 6.9375 8.59208 6.9375 9C6.9375 9.54701 7.1548 10.0716 7.54159 10.4584C7.92839 10.8452 8.45299 11.0625 9 11.0625ZM9 8.0625C9.18542 8.0625 9.36668 8.11748 9.52085 8.2205C9.67502 8.32351 9.79518 8.46993 9.86614 8.64123C9.93709 8.81254 9.95566 9.00104 9.91949 9.1829C9.88331 9.36475 9.79402 9.5318 9.66291 9.66291C9.5318 9.79402 9.36475 9.88331 9.1829 9.91949C9.00104 9.95566 8.81254 9.93709 8.64123 9.86614C8.46993 9.79518 8.32351 9.67502 8.2205 9.52085C8.11748 9.36668 8.0625 9.18542 8.0625 9C8.0625 8.75136 8.16127 8.5129 8.33709 8.33709C8.5129 8.16127 8.75136 8.0625 9 8.0625Z" fill="black"/>
</svg>
