<svg width="24" height="24" viewBox="0 0 24 24" fill="none" xmlns="http://www.w3.org/2000/svg">
<path d="M3 18.9375H3.9375V3.75C3.9375 3.60082 3.99676 3.45774 4.10225 3.35225C4.20774 3.24676 4.35081 3.1875 4.5 3.1875H9.75C9.89918 3.1875 10.0423 3.24676 10.1477 3.35225C10.2532 3.45774 10.3125 3.60082 10.3125 3.75V7.6875H15C15.1492 7.6875 15.2923 7.74676 15.3977 7.85225C15.5032 7.95774 15.5625 8.10082 15.5625 8.25V12.1875H19.5C19.6492 12.1875 19.7923 12.2468 19.8977 12.3523C20.0032 12.4577 20.0625 12.6008 20.0625 12.75V18.9375H21C21.1492 18.9375 21.2923 18.9968 21.3977 19.1023C21.5032 19.2077 21.5625 19.3508 21.5625 19.5C21.5625 19.6492 21.5032 19.7923 21.3977 19.8977C21.2923 20.0032 21.1492 20.0625 21 20.0625H3C2.85081 20.0625 2.70774 20.0032 2.60225 19.8977C2.49676 19.7923 2.4375 19.6492 2.4375 19.5C2.4375 19.3508 2.49676 19.2077 2.60225 19.1023C2.70774 18.9968 2.85081 18.9375 3 18.9375ZM9.1875 4.3125H5.0625V18.9375H9.1875V4.3125ZM14.4375 8.8125H10.3125V18.9375H14.4375V8.8125ZM18.9375 13.3125H15.5625V18.9375H18.9375V13.3125Z" fill="black"/>
</svg>
