<svg width="24" height="24" viewBox="0 0 24 24" fill="none" xmlns="http://www.w3.org/2000/svg">
<path d="M4.1325 4.81596C4.07146 4.86863 4.02245 4.93382 3.98881 5.00709C3.95517 5.08037 3.93767 5.16002 3.9375 5.24064V21C3.9375 21.1492 3.99676 21.2923 4.10225 21.3978C4.20774 21.5033 4.35082 21.5625 4.5 21.5625C4.64918 21.5625 4.79226 21.5033 4.89775 21.3978C5.00324 21.2923 5.0625 21.1492 5.0625 21V16.7606C7.695 14.6241 9.92625 15.7294 12.5006 17.0016C14.0119 17.7516 15.6403 18.556 17.3756 18.556C18.6478 18.556 19.9781 18.1247 21.3656 16.9228C21.4268 16.8705 21.476 16.8057 21.5099 16.7328C21.5439 16.6599 21.5618 16.5805 21.5625 16.5V5.24064C21.5626 5.13275 21.5317 5.0271 21.4734 4.9363C21.4152 4.84549 21.332 4.77335 21.2339 4.72849C21.1358 4.68363 21.0268 4.66793 20.92 4.68328C20.8132 4.69862 20.7131 4.74435 20.6316 4.81502C17.9128 7.17002 15.6366 6.04221 12.9994 4.73627C10.3847 3.44158 7.40625 1.98377 4.1325 4.81596ZM20.4375 16.2347C17.805 18.3722 15.5738 17.266 12.9994 15.9928C10.6313 14.82 7.97719 13.5066 5.0625 15.375V5.50502C7.695 3.36752 9.92625 4.47377 12.5006 5.74502C14.8687 6.91783 17.5228 8.23127 20.4375 6.36658V16.2347Z" fill="black"/>
</svg>
