<svg width="24" height="24" viewBox="0 0 24 24" fill="none" xmlns="http://www.w3.org/2000/svg">
<path d="M18.75 3.1875H15C14.6519 3.1875 14.3181 3.32578 14.0719 3.57192C13.8258 3.81806 13.6875 4.1519 13.6875 4.5V19.5C13.6875 19.8481 13.8258 20.1819 14.0719 20.4281C14.3181 20.6742 14.6519 20.8125 15 20.8125H18.75C19.0981 20.8125 19.4319 20.6742 19.6781 20.4281C19.9242 20.1819 20.0625 19.8481 20.0625 19.5V4.5C20.0625 4.1519 19.9242 3.81806 19.6781 3.57192C19.4319 3.32578 19.0981 3.1875 18.75 3.1875ZM18.9375 19.5C18.9375 19.5497 18.9177 19.5974 18.8826 19.6326C18.8474 19.6677 18.7997 19.6875 18.75 19.6875H15C14.9503 19.6875 14.9026 19.6677 14.8674 19.6326C14.8323 19.5974 14.8125 19.5497 14.8125 19.5V4.5C14.8125 4.45027 14.8323 4.40258 14.8674 4.36742C14.9026 4.33225 14.9503 4.3125 15 4.3125H18.75C18.7997 4.3125 18.8474 4.33225 18.8826 4.36742C18.9177 4.40258 18.9375 4.45027 18.9375 4.5V19.5ZM9 3.1875H5.25C4.9019 3.1875 4.56806 3.32578 4.32192 3.57192C4.07578 3.81806 3.9375 4.1519 3.9375 4.5V19.5C3.9375 19.8481 4.07578 20.1819 4.32192 20.4281C4.56806 20.6742 4.9019 20.8125 5.25 20.8125H9C9.3481 20.8125 9.68194 20.6742 9.92808 20.4281C10.1742 20.1819 10.3125 19.8481 10.3125 19.5V4.5C10.3125 4.1519 10.1742 3.81806 9.92808 3.57192C9.68194 3.32578 9.3481 3.1875 9 3.1875ZM9.1875 19.5C9.1875 19.5497 9.16775 19.5974 9.13258 19.6326C9.09742 19.6677 9.04973 19.6875 9 19.6875H5.25C5.20027 19.6875 5.15258 19.6677 5.11742 19.6326C5.08225 19.5974 5.0625 19.5497 5.0625 19.5V4.5C5.0625 4.45027 5.08225 4.40258 5.11742 4.36742C5.15258 4.33225 5.20027 4.3125 5.25 4.3125H9C9.04973 4.3125 9.09742 4.33225 9.13258 4.36742C9.16775 4.40258 9.1875 4.45027 9.1875 4.5V19.5Z" fill="black"/>
</svg>
