<svg width="24" height="24" viewBox="0 0 24 24" fill="none" xmlns="http://www.w3.org/2000/svg">
    <path
        d="M16.1475 9.3525C16.2528 9.45797 16.312 9.60094 16.312 9.75C16.312 9.89906 16.2528 10.042 16.1475 10.1475L10.8975 15.3975C10.792 15.5028 10.6491 15.562 10.5 15.562C10.3509 15.562 10.208 15.5028 10.1025 15.3975L7.8525 13.1475C7.75314 13.0409 7.69905 12.8998 7.70162 12.7541C7.70419 12.6084 7.76323 12.4693 7.86629 12.3663C7.96935 12.2632 8.10839 12.2042 8.25411 12.2016C8.39984 12.199 8.54087 12.2531 8.6475 12.3525L10.5 14.2041L15.3525 9.3525C15.458 9.24716 15.6009 9.18799 15.75 9.18799C15.8991 9.18799 16.042 9.24716 16.1475 9.3525Z"
        fill="black" />
</svg>
