<svg width="6" height="10" viewBox="0 0 6 10" fill="none" xmlns="http://www.w3.org/2000/svg">
<path d="M0 4.99718C0 5.09505 0.0176817 5.18539 0.0530452 5.26821C0.0923379 5.35103 0.151277 5.43008 0.229862 5.50536L4.82122 9.80802C4.95481 9.93601 5.11591 10 5.30452 10C5.43418 10 5.5501 9.96989 5.65226 9.90966C5.75835 9.85319 5.84283 9.77414 5.9057 9.6725C5.96857 9.57463 6 9.46546 6 9.345C6 9.16431 5.92731 9.00433 5.78193 8.86505L1.6444 4.99718L5.78193 1.12931C5.92731 0.990025 6 0.831922 6 0.654997C6 0.530774 5.96857 0.419725 5.9057 0.321852C5.84283 0.223979 5.75835 0.14681 5.65226 0.0903444C5.5501 0.0301148 5.43418 0 5.30452 0C5.11591 0 4.95481 0.0621118 4.82122 0.186335L0.229862 4.48899C0.151277 4.56428 0.0923379 4.64333 0.0530452 4.72614C0.0176817 4.80896 0 4.8993 0 4.99718Z" fill="#0C0A09"/>
</svg>
