<svg width="22" height="22" viewBox="0 0 22 22" fill="none" xmlns="http://www.w3.org/2000/svg">
    <path
        d="M20.7969 8.45027L4.98438 2.95027C4.90651 2.92274 4.82318 2.91431 4.74138 2.9257C4.65959 2.9371 4.58172 2.96797 4.51434 3.01572C4.44696 3.06348 4.39204 3.12672 4.3542 3.20012C4.31635 3.27353 4.2967 3.35495 4.29688 3.43753V18.5625C4.29688 18.6993 4.3512 18.8304 4.4479 18.9271C4.5446 19.0238 4.67575 19.0782 4.8125 19.0782C4.94925 19.0782 5.0804 19.0238 5.1771 18.9271C5.2738 18.8304 5.32813 18.6993 5.32813 18.5625V14.8045L20.7969 9.4248C20.8982 9.38973 20.9861 9.32396 21.0482 9.23662C21.1104 9.14929 21.1439 9.04474 21.1439 8.93753C21.1439 8.83032 21.1104 8.72577 21.0482 8.63844C20.9861 8.55111 20.8982 8.48533 20.7969 8.45027ZM5.32813 13.7122V4.16284L19.0558 8.93753L5.32813 13.7122Z"
        fill="black" />
</svg>
