<svg width="24" height="24" viewBox="0 0 24 24" fill="none" xmlns="http://www.w3.org/2000/svg">
<path d="M21.4476 4.71935C21.347 4.48578 21.1798 4.28705 20.9668 4.14799C20.7539 4.00892 20.5047 3.9357 20.2504 3.93747H3.75042C3.49633 3.93796 3.24785 4.01218 3.03513 4.15114C2.82241 4.2901 2.6546 4.48781 2.55206 4.72029C2.44952 4.95277 2.41666 5.21001 2.45747 5.4608C2.49829 5.71158 2.61102 5.94513 2.78198 6.1331L2.78761 6.13966L9.18792 12.9731V20.25C9.18802 20.4875 9.25259 20.7206 9.37475 20.9243C9.49691 21.1281 9.67207 21.2948 9.88156 21.4069C10.091 21.5189 10.327 21.5719 10.5643 21.5604C10.8016 21.5488 11.0312 21.4731 11.2289 21.3412L14.2289 19.3415C14.4086 19.2216 14.5559 19.0592 14.6578 18.8687C14.7597 18.6781 14.813 18.4654 14.8129 18.2493V12.9731L21.2189 6.12934C21.391 5.94261 21.5044 5.7094 21.5451 5.45872C21.5858 5.20803 21.5519 4.95092 21.4476 4.71935ZM20.392 5.36997L13.8398 12.3656C13.7422 12.4698 13.6879 12.6072 13.6879 12.75V18.2493C13.688 18.2803 13.6804 18.3108 13.6659 18.3381C13.6513 18.3654 13.6302 18.3887 13.6045 18.4059L10.6045 20.4056C10.5763 20.4244 10.5435 20.4352 10.5096 20.4369C10.4757 20.4386 10.442 20.431 10.4121 20.415C10.3822 20.3991 10.3572 20.3753 10.3397 20.3462C10.3222 20.3171 10.313 20.2839 10.3129 20.25V12.75C10.3129 12.6072 10.2586 12.4698 10.161 12.3656L3.61261 5.37372C3.58897 5.34683 3.57353 5.31374 3.56811 5.27835C3.56269 5.24297 3.56751 5.20677 3.582 5.17403C3.59649 5.1413 3.62006 5.1134 3.6499 5.09363C3.67974 5.07386 3.71462 5.06305 3.75042 5.06247H20.2504C20.287 5.06118 20.3231 5.07119 20.3538 5.09115C20.3845 5.11112 20.4083 5.14006 20.422 5.17403C20.4375 5.20588 20.4429 5.24168 20.4375 5.27668C20.4322 5.31168 20.4163 5.34422 20.392 5.36997Z" fill="black"/>
</svg>
