<svg width="24" height="24" viewBox="0 0 24 24" fill="none" xmlns="http://www.w3.org/2000/svg">
<path d="M12 2.4375C10.1087 2.4375 8.25991 2.99833 6.68736 4.04907C5.11482 5.09981 3.88917 6.59327 3.16541 8.34059C2.44164 10.0879 2.25227 12.0106 2.62125 13.8656C2.99022 15.7205 3.90096 17.4244 5.2383 18.7617C6.57564 20.099 8.27951 21.0098 10.1345 21.3788C11.9894 21.7477 13.9121 21.5584 15.6594 20.8346C17.4067 20.1108 18.9002 18.8852 19.9509 17.3126C21.0017 15.7401 21.5625 13.8913 21.5625 12C21.5595 9.46478 20.5511 7.03425 18.7584 5.24158C16.9658 3.44891 14.5352 2.44048 12 2.4375ZM20.4188 11.4375H16.3022C16.1578 7.61531 14.5697 5.04094 13.4494 3.68719C15.3099 4.01478 17.0071 4.95602 18.2703 6.36074C19.5335 7.76547 20.2899 9.55276 20.4188 11.4375ZM12 20.2341C11.4584 19.6816 10.9807 19.0699 10.5759 18.4106C9.49926 16.6442 8.8961 14.63 8.82469 12.5625H15.1753C15.1039 14.63 14.5008 16.6442 13.4241 18.4106C13.0193 19.0699 12.5416 19.6816 12 20.2341ZM8.82469 11.4375C8.8961 9.37001 9.49926 7.35583 10.5759 5.58938C10.9807 4.93007 11.4584 4.31841 12 3.76594C12.5416 4.31841 13.0193 4.93007 13.4241 5.58938C14.5008 7.35583 15.1039 9.37001 15.1753 11.4375H8.82469ZM10.5506 3.68719C9.42563 5.04094 7.84219 7.61531 7.69782 11.4375H3.58125C3.71015 9.55276 4.46652 7.76547 5.7297 6.36074C6.99288 4.95602 8.6901 4.01478 10.5506 3.68719ZM3.58125 12.5625H7.69782C7.84219 16.3847 9.43032 18.9591 10.5506 20.3128C8.6901 19.9852 6.99288 19.044 5.7297 17.6393C4.46652 16.2345 3.71015 14.4472 3.58125 12.5625ZM13.4494 20.3128C14.5697 18.9591 16.1578 16.3847 16.3022 12.5625H20.4188C20.2899 14.4472 19.5335 16.2345 18.2703 17.6393C17.0071 19.044 15.3099 19.9852 13.4494 20.3128Z" fill="black"/>
</svg>
