<svg width="16" height="16" viewBox="0 0 16 16" fill="none" xmlns="http://www.w3.org/2000/svg">
    <path
        d="M15.8751 8.49994C15.8751 8.5994 15.8356 8.69478 15.7653 8.76511C15.6949 8.83543 15.5996 8.87494 15.5001 8.87494H14.3751V9.99994C14.3751 10.0994 14.3356 10.1948 14.2653 10.2651C14.1949 10.3354 14.0996 10.3749 14.0001 10.3749C13.9006 10.3749 13.8053 10.3354 13.7349 10.2651C13.6646 10.1948 13.6251 10.0994 13.6251 9.99994V8.87494H12.5001C12.4006 8.87494 12.3053 8.83543 12.2349 8.76511C12.1646 8.69478 12.1251 8.5994 12.1251 8.49994C12.1251 8.40048 12.1646 8.3051 12.2349 8.23478C12.3053 8.16445 12.4006 8.12494 12.5001 8.12494H13.6251V6.99994C13.6251 6.90048 13.6646 6.8051 13.7349 6.73478C13.8053 6.66445 13.9006 6.62494 14.0001 6.62494C14.0996 6.62494 14.1949 6.66445 14.2653 6.73478C14.3356 6.8051 14.3751 6.90048 14.3751 6.99994V8.12494H15.5001C15.5996 8.12494 15.6949 8.16445 15.7653 8.23478C15.8356 8.3051 15.8751 8.40048 15.8751 8.49994ZM12.287 12.2587C12.3204 12.2961 12.346 12.3399 12.3622 12.3874C12.3784 12.4349 12.3849 12.4852 12.3814 12.5352C12.3778 12.5853 12.3642 12.6341 12.3414 12.6788C12.3186 12.7235 12.2871 12.7632 12.2487 12.7955C12.2103 12.8278 12.1658 12.8521 12.1178 12.8669C12.0698 12.8817 12.0194 12.8867 11.9695 12.8816C11.9195 12.8766 11.8711 12.8615 11.8271 12.8374C11.7831 12.8133 11.7444 12.7806 11.7132 12.7412C10.4313 11.2156 8.66822 10.3749 6.7501 10.3749C4.83197 10.3749 3.06947 11.2156 1.78697 12.7412C1.722 12.8139 1.63127 12.8585 1.534 12.8654C1.43674 12.8723 1.3406 12.8411 1.26597 12.7783C1.19134 12.7156 1.14409 12.6262 1.13424 12.5292C1.1244 12.4322 1.15272 12.3352 1.21322 12.2587C2.19635 11.0881 3.4376 10.2799 4.8126 9.89057C4.00013 9.45831 3.35556 8.76677 2.9814 7.92597C2.60724 7.08517 2.525 6.14339 2.74775 5.25046C2.97051 4.35753 3.48546 3.56474 4.2107 2.99819C4.93594 2.43165 5.8298 2.1239 6.7501 2.1239C7.67039 2.1239 8.56425 2.43165 9.28949 2.99819C10.0147 3.56474 10.5297 4.35753 10.7524 5.25046C10.9752 6.14339 10.8929 7.08517 10.5188 7.92597C10.1446 8.76677 9.50006 9.45831 8.6876 9.89057C10.0626 10.2799 11.3038 11.0881 12.287 12.2587ZM6.7501 9.62494C7.41761 9.62494 8.07013 9.427 8.62515 9.05615C9.18016 8.6853 9.61274 8.1582 9.86819 7.5415C10.1236 6.9248 10.1905 6.2462 10.0602 5.59151C9.93002 4.93683 9.60858 4.33546 9.13658 3.86346C8.66458 3.39145 8.06321 3.07002 7.40853 2.93979C6.75384 2.80957 6.07524 2.8764 5.45854 3.13185C4.84184 3.38729 4.31474 3.81988 3.94389 4.37489C3.57304 4.92991 3.3751 5.58243 3.3751 6.24994C3.37609 7.14474 3.73199 8.00261 4.36471 8.63533C4.99743 9.26805 5.85529 9.62395 6.7501 9.62494Z"
        fill="black" />
</svg>
