<svg width="22" height="22" viewBox="0 0 22 22" fill="none" xmlns="http://www.w3.org/2000/svg">
    <path
        d="M13.2344 9.41016V3.22266C13.2343 3.14014 13.2541 3.05883 13.292 2.98553C13.3299 2.91224 13.3848 2.84911 13.4522 2.80146C13.5196 2.7538 13.5974 2.72301 13.6791 2.71166C13.7608 2.70031 13.8441 2.70875 13.9219 2.73625C15.8904 3.43207 17.5459 4.8077 18.5904 6.61552C19.635 8.42334 19.9999 10.5446 19.6195 12.5976C19.6046 12.6788 19.5704 12.7552 19.5197 12.8204C19.4691 12.8856 19.4036 12.9377 19.3286 12.9723C19.2537 13.0069 19.1715 13.023 19.089 13.0193C19.0066 13.0155 18.9262 12.992 18.8547 12.9508L13.4922 9.85703C13.4138 9.81175 13.3486 9.7466 13.3034 9.66816C13.2581 9.58971 13.2343 9.50072 13.2344 9.41016ZM14.2656 9.10938L18.7052 11.6703C18.7247 11.4474 18.7344 11.224 18.7344 11C18.7333 9.52744 18.3123 8.08572 17.5208 6.84397C16.7293 5.60222 15.6001 4.61191 14.2656 3.98922V9.10938ZM11 2.23438C11.1368 2.23438 11.2679 2.2887 11.3646 2.3854C11.4613 2.4821 11.5156 2.61325 11.5156 2.75V10.7422L18.3735 14.7348C18.432 14.769 18.4833 14.8144 18.5243 14.8685C18.5653 14.9225 18.5952 14.9841 18.6124 15.0497C18.6296 15.1153 18.6336 15.1837 18.6243 15.2509C18.615 15.3181 18.5926 15.3828 18.5582 15.4412C17.7801 16.7653 16.6677 17.8617 15.3326 18.6206C13.9974 19.3795 12.4863 19.7743 10.9505 19.7655C9.41478 19.7566 7.9083 19.3445 6.58196 18.5702C5.25562 17.796 4.15597 16.6869 3.39315 15.3539C2.63032 14.021 2.23108 12.511 2.23541 10.9753C2.23975 9.43948 2.6475 7.9318 3.41784 6.6032C4.18819 5.27459 5.29408 4.17169 6.62476 3.40495C7.95545 2.63822 9.46424 2.23455 11 2.23438ZM11 18.7344C12.2594 18.731 13.4991 18.4218 14.6125 17.8334C15.726 17.2449 16.6798 16.3948 17.392 15.3562L10.7422 11.4821C10.6639 11.4369 10.5989 11.3719 10.5536 11.2936C10.5084 11.2153 10.4845 11.1265 10.4844 11.0361V3.28281C8.48218 3.41652 6.61031 4.32315 5.2641 5.81125C3.91789 7.29935 3.20273 9.2524 3.26966 11.258C3.33658 13.2635 4.18035 15.1645 5.62278 16.5596C7.0652 17.9546 8.99335 18.7344 11 18.7344Z"
        fill="white" />
</svg>
