<svg width="16" height="16" viewBox="0 0 16 16" fill="none" xmlns="http://www.w3.org/2000/svg">
    <path
        d="M14.2649 13.735L11.0537 10.5238C11.9694 9.47066 12.4405 8.10315 12.3676 6.70949C12.2947 5.31584 11.6836 4.00492 10.663 3.05307C9.64244 2.10122 8.29216 1.58281 6.89681 1.60711C5.50147 1.63141 4.17006 2.19653 3.18325 3.18334C2.19644 4.17015 1.63132 5.50156 1.60702 6.89691C1.58272 8.29225 2.10113 9.64253 3.05298 10.6631C4.00483 11.6837 5.31575 12.2948 6.7094 12.3677C8.10306 12.4406 9.47057 11.9695 10.5237 11.0538L13.7349 14.265C13.806 14.3313 13.9 14.3673 13.9972 14.3656C14.0943 14.3639 14.187 14.3245 14.2557 14.2558C14.3244 14.1871 14.3638 14.0944 14.3655 13.9973C14.3672 13.9001 14.3312 13.8061 14.2649 13.735ZM2.37492 7.00001C2.37492 6.08527 2.64617 5.19108 3.15437 4.4305C3.66258 3.66992 4.3849 3.07713 5.23001 2.72707C6.07512 2.37702 7.00505 2.28542 7.90221 2.46388C8.79938 2.64234 9.62347 3.08283 10.2703 3.72964C10.9171 4.37646 11.3576 5.20056 11.5361 6.09772C11.7145 6.99488 11.6229 7.92482 11.2729 8.76992C10.9228 9.61503 10.33 10.3374 9.56943 10.8456C8.80886 11.3538 7.91466 11.625 6.99992 11.625C5.77375 11.6235 4.59823 11.1358 3.7312 10.2687C2.86416 9.4017 2.37641 8.22618 2.37492 7.00001Z"
        fill="black" />
</svg>
