<svg width="22" height="22" viewBox="0 0 22 22" fill="none" xmlns="http://www.w3.org/2000/svg">
    <path
        d="M11 7.04688C10.2182 7.04688 9.45387 7.27873 8.80378 7.7131C8.1537 8.14748 7.64701 8.76487 7.34781 9.48721C7.04861 10.2095 6.97032 11.0044 7.12286 11.7712C7.27539 12.5381 7.65189 13.2424 8.20474 13.7953C8.7576 14.3481 9.46198 14.7246 10.2288 14.8772C10.9956 15.0297 11.7905 14.9514 12.5128 14.6522C13.2352 14.353 13.8526 13.8463 14.2869 13.1962C14.7213 12.5462 14.9531 11.7819 14.9531 11C14.9518 9.95199 14.5349 8.94729 13.7938 8.20623C13.0527 7.46517 12.048 7.04824 11 7.04688ZM11 13.9219C10.4221 13.9219 9.85722 13.7505 9.37672 13.4295C8.89622 13.1084 8.52171 12.6521 8.30056 12.1182C8.07941 11.5843 8.02155 10.9968 8.13429 10.43C8.24703 9.86319 8.52531 9.34256 8.93394 8.93393C9.34258 8.5253 9.8632 8.24701 10.43 8.13427C10.9968 8.02153 11.5843 8.0794 12.1182 8.30055C12.6521 8.5217 13.1084 8.8962 13.4295 9.3767C13.7505 9.8572 13.9219 10.4221 13.9219 11C13.9219 11.7749 13.6141 12.5181 13.0661 13.0661C12.5181 13.614 11.775 13.9219 11 13.9219ZM18.3906 11.2441C18.3958 11.0816 18.3958 10.9184 18.3906 10.7559L19.7081 9.10938C19.7584 9.04635 19.7933 8.97238 19.8099 8.89343C19.8264 8.81447 19.8242 8.73273 19.8035 8.65477C19.5973 7.87796 19.2887 7.13205 18.8856 6.43672C18.8456 6.36615 18.7895 6.30603 18.7219 6.26123C18.6542 6.21643 18.5769 6.18823 18.4964 6.17891L16.3952 5.94602C16.2846 5.82743 16.17 5.71284 16.0514 5.60227L15.8177 3.50024C15.8084 3.41964 15.7802 3.34238 15.7354 3.27474C15.6906 3.20709 15.6304 3.15097 15.5599 3.11094C14.8654 2.70906 14.1207 2.40102 13.3453 2.19485C13.2671 2.17443 13.1852 2.17266 13.1063 2.18967C13.0273 2.20669 12.9535 2.24202 12.8906 2.29282L11.2406 3.61368C11.0782 3.60852 10.9149 3.60852 10.7525 3.61368L9.1094 2.29196C9.04637 2.2416 8.9724 2.20674 8.89344 2.19017C8.81449 2.1736 8.73274 2.1758 8.65479 2.19657C7.87798 2.40269 7.13207 2.71134 6.43674 3.11438C6.36617 3.15441 6.30604 3.21053 6.26124 3.27817C6.21645 3.34582 6.18824 3.42308 6.17893 3.50368L5.94948 5.60485C5.83088 5.716 5.7163 5.83058 5.60573 5.9486L3.50284 6.18751C3.42224 6.19682 3.34498 6.22502 3.27733 6.26982C3.20969 6.31462 3.15357 6.37475 3.11354 6.44532C2.71166 7.1398 2.40361 7.88449 2.19744 8.65993C2.17752 8.73712 2.17576 8.81788 2.19231 8.89587C2.20886 8.97385 2.24327 9.04694 2.29284 9.10938L3.61369 10.7594C3.60854 10.9218 3.60854 11.0851 3.61369 11.2475L2.29198 12.8949C2.24162 12.958 2.20676 13.0319 2.19019 13.1109C2.17362 13.1898 2.17581 13.2716 2.19659 13.3495C2.40307 14.1249 2.71171 14.8693 3.1144 15.5633C3.15443 15.6339 3.21055 15.694 3.27819 15.7388C3.34584 15.7836 3.4231 15.8118 3.50369 15.8211L5.60487 16.054C5.71601 16.1726 5.8306 16.2872 5.94862 16.3977L6.18752 18.4972C6.19684 18.5778 6.22504 18.6551 6.26984 18.7227C6.31464 18.7903 6.37476 18.8465 6.44534 18.8865C7.13982 19.2884 7.8845 19.5964 8.65994 19.8026C8.7379 19.8234 8.81964 19.8255 8.8986 19.809C8.97756 19.7924 9.05152 19.7575 9.11455 19.7072L10.756 18.3906C10.9184 18.3958 11.0817 18.3958 11.2441 18.3906L12.8949 19.7123C12.9865 19.7854 13.1001 19.8251 13.2172 19.8249C13.2619 19.8248 13.3063 19.819 13.3496 19.8077C14.1249 19.6013 14.8693 19.2926 15.5633 18.8899C15.6339 18.8499 15.694 18.7938 15.7388 18.7261C15.7836 18.6585 15.8118 18.5812 15.8211 18.5006L16.054 16.3995C16.1726 16.2889 16.2872 16.1743 16.3978 16.0557L18.4998 15.822C18.5804 15.8126 18.6576 15.7844 18.7253 15.7396C18.7929 15.6948 18.8491 15.6347 18.8891 15.5641C19.2911 14.8697 19.5992 14.125 19.8052 13.3495C19.826 13.2716 19.8281 13.1898 19.8116 13.1109C19.795 13.0319 19.7601 12.958 19.7098 12.8949L18.3906 11.2441ZM18.1242 14.8216L16.0927 15.0477C15.9657 15.0623 15.8487 15.1235 15.7644 15.2195C15.5945 15.4109 15.4135 15.5919 15.2221 15.7618C15.1261 15.8462 15.0649 15.9631 15.0503 16.0901L14.8242 18.1208C14.3486 18.3744 13.8488 18.58 13.3324 18.7344L11.7365 17.4573C11.645 17.3843 11.5313 17.3446 11.4142 17.3448H11.3833C11.128 17.3594 10.8721 17.3594 10.6167 17.3448C10.4892 17.337 10.3634 17.3768 10.2635 17.4565L8.66854 18.7344C8.15254 18.5791 7.65334 18.3727 7.17838 18.1182L6.95237 16.0884C6.93773 15.9614 6.87648 15.8444 6.78049 15.7601C6.58915 15.5902 6.40808 15.4092 6.23823 15.2178C6.15388 15.1218 6.03689 15.0606 5.90994 15.0459L3.87924 14.8199C3.62585 14.3457 3.42031 13.8473 3.26565 13.3323L4.54268 11.7365C4.62239 11.6367 4.6622 11.5108 4.6544 11.3833C4.63979 11.128 4.63979 10.872 4.6544 10.6167C4.6622 10.4892 4.62239 10.3634 4.54268 10.2635L3.26565 8.66852C3.42089 8.15252 3.62731 7.65332 3.88182 7.17836L5.91166 6.95235C6.03861 6.93772 6.1556 6.87647 6.23994 6.78047C6.4098 6.58914 6.59087 6.40806 6.78221 6.23821C6.8782 6.15386 6.93945 6.03687 6.95409 5.90993L7.1801 3.87922C7.65437 3.62584 8.15269 3.42029 8.66768 3.26563L10.2635 4.54266C10.3634 4.62237 10.4892 4.66218 10.6167 4.65438C10.8721 4.63977 11.128 4.63977 11.3833 4.65438C11.5108 4.66218 11.6367 4.62237 11.7365 4.54266L13.3315 3.26563C13.8475 3.42088 14.3467 3.62729 14.8217 3.8818L15.0477 5.91336C15.0623 6.04031 15.1236 6.1573 15.2196 6.24165C15.4109 6.4115 15.592 6.59257 15.7618 6.78391C15.8462 6.8799 15.9632 6.94115 16.0901 6.95579L18.1208 7.1818C18.3741 7.65552 18.5796 8.15326 18.7344 8.66766L17.4574 10.2635C17.3777 10.3634 17.3378 10.4892 17.3456 10.6167C17.3603 10.872 17.3603 11.128 17.3456 11.3833C17.3378 11.5108 17.3777 11.6367 17.4574 11.7365L18.7344 13.3315C18.5797 13.8474 18.3739 14.3466 18.1199 14.8216H18.1242Z"
        fill="black" />
</svg>
