<svg width="18" height="18" viewBox="0 0 18 18" fill="none" xmlns="http://www.w3.org/2000/svg">
<path d="M8.64365 1.72129C8.71069 1.58584 8.84876 1.50012 8.9999 1.50012C9.15104 1.50012 9.2891 1.58584 9.35615 1.72129L11.0886 5.23054C11.32 5.69966 11.7673 6.02496 12.2849 6.10054L16.1594 6.66754C16.3092 6.68924 16.4336 6.79409 16.4804 6.938C16.5272 7.0819 16.4882 7.2399 16.3799 7.34554L13.5779 10.074C13.2024 10.4394 13.031 10.9662 13.1196 11.4825L13.7811 15.3375C13.8076 15.4873 13.7463 15.6389 13.6233 15.7283C13.5003 15.8176 13.3371 15.829 13.2029 15.7575L9.7394 13.9365C9.2762 13.693 8.72284 13.693 8.25965 13.9365L4.7969 15.7575C4.66275 15.8286 4.49987 15.817 4.37712 15.7277C4.25436 15.6384 4.19317 15.487 4.2194 15.3375L4.88015 11.4833C4.96902 10.9667 4.79759 10.4395 4.4219 10.074L1.6199 7.34629C1.51063 7.24076 1.47107 7.08218 1.51796 6.93769C1.56484 6.79319 1.68998 6.68806 1.8404 6.66679L5.71415 6.10054C6.23228 6.02543 6.68023 5.70005 6.9119 5.23054L8.64365 1.72129" stroke="#000" stroke-width="1.5" stroke-linecap="round" stroke-linejoin="round"/>
</svg>
