<svg width="24" height="24" viewBox="0 0 24 24" fill="none" xmlns="http://www.w3.org/2000/svg">
<path d="M10.5558 14.8528C11.6003 14.2608 12.4195 13.3396 12.8856 12.2331C13.3517 11.1266 13.4384 9.89691 13.1323 8.73592C12.8261 7.57493 12.1443 6.54792 11.1932 5.8151C10.2421 5.08228 9.0752 4.68488 7.87453 4.68488C6.67385 4.68488 5.50693 5.08228 4.55582 5.8151C3.60471 6.54792 2.9229 7.57493 2.61675 8.73592C2.31061 9.89691 2.39734 11.1266 2.86342 12.2331C3.3295 13.3396 4.14872 14.2608 5.19328 14.8528C3.25731 15.47 1.59472 16.7384 0.487963 18.4425C0.406409 18.5675 0.377828 18.7197 0.408508 18.8657C0.439188 19.0117 0.526615 19.1396 0.651557 19.2211C0.776499 19.3027 0.928721 19.3313 1.07474 19.3006C1.22075 19.2699 1.3486 19.1825 1.43015 19.0575C2.12822 17.9842 3.08331 17.1023 4.20871 16.4917C5.33411 15.8812 6.59418 15.5614 7.87453 15.5614C9.15487 15.5614 10.4149 15.8812 11.5403 16.4917C12.6657 17.1023 13.6208 17.9842 14.3189 19.0575C14.4058 19.1689 14.5313 19.2434 14.6706 19.2665C14.81 19.2895 14.9528 19.2593 15.0709 19.1818C15.189 19.1044 15.2736 18.9853 15.308 18.8484C15.3423 18.7114 15.3239 18.5665 15.2564 18.4425C14.1508 16.7393 12.49 15.471 10.5558 14.8528ZM3.56203 10.125C3.56203 9.2721 3.81495 8.43832 4.28881 7.72913C4.76268 7.01995 5.4362 6.4672 6.2242 6.1408C7.01221 5.8144 7.87931 5.72899 8.71585 5.89539C9.5524 6.06179 10.3208 6.47252 10.9239 7.07563C11.527 7.67875 11.9378 8.44716 12.1042 9.2837C12.2706 10.1202 12.1852 10.9873 11.8588 11.7754C11.5324 12.5634 10.9796 13.2369 10.2704 13.7107C9.56124 14.1846 8.72746 14.4375 7.87453 14.4375C6.73124 14.436 5.6352 13.9812 4.82677 13.1728C4.01834 12.3644 3.56351 11.2683 3.56203 10.125ZM23.3433 19.2188C23.2184 19.3002 23.0664 19.3288 22.9205 19.2982C22.7746 19.2677 22.6468 19.1804 22.5652 19.0557C21.8683 17.9822 20.9139 17.1003 19.789 16.4902C18.664 15.88 17.4043 15.5611 16.1245 15.5625C15.9753 15.5625 15.8323 15.5033 15.7268 15.3978C15.6213 15.2923 15.562 15.1492 15.562 15C15.562 14.8508 15.6213 14.7078 15.7268 14.6023C15.8323 14.4968 15.9753 14.4375 16.1245 14.4375C16.7596 14.4369 17.3866 14.296 17.9609 14.0249C18.5352 13.7539 19.0426 13.3593 19.4467 12.8695C19.8508 12.3796 20.1418 11.8065 20.2988 11.1912C20.4558 10.5759 20.475 9.93346 20.3549 9.30987C20.2349 8.68627 19.9786 8.09687 19.6044 7.5838C19.2302 7.07072 18.7473 6.64662 18.1902 6.3418C17.6331 6.03698 17.0155 5.85896 16.3816 5.82046C15.7477 5.78196 15.1132 5.88393 14.5233 6.11909C14.4546 6.14722 14.381 6.16147 14.3067 6.16103C14.2325 6.16058 14.1591 6.14544 14.0907 6.11649C14.0224 6.08753 13.9604 6.04533 13.9085 5.99232C13.8565 5.9393 13.8155 5.87653 13.7879 5.80761C13.7603 5.73869 13.7467 5.66499 13.7477 5.59075C13.7487 5.51652 13.7644 5.44323 13.7939 5.3751C13.8234 5.30697 13.8661 5.24535 13.9195 5.19379C13.9729 5.14224 14.036 5.10177 14.1052 5.07472C15.3847 4.5646 16.8101 4.5591 18.0935 5.05934C19.3769 5.55958 20.4227 6.52827 21.0195 7.76973C21.6163 9.01119 21.7197 10.4329 21.3088 11.7476C20.8979 13.0624 20.0033 14.1722 18.8058 14.8528C20.7417 15.47 22.4043 16.7384 23.5111 18.4425C23.5915 18.5678 23.619 18.7198 23.5876 18.8653C23.5561 19.0108 23.4683 19.1379 23.3433 19.2188Z" fill="black"/>
</svg>
