<svg width="24" height="24" viewBox="0 0 24 24" fill="none" xmlns="http://www.w3.org/2000/svg">
<path d="M22.3126 12V18C22.3126 18.1492 22.2534 18.2923 22.1479 18.3978C22.0424 18.5032 21.8993 18.5625 21.7501 18.5625H15.7501C15.6009 18.5625 15.4579 18.5032 15.3524 18.3978C15.2469 18.2923 15.1876 18.1492 15.1876 18C15.1876 17.8508 15.2469 17.7077 15.3524 17.6023C15.4579 17.4968 15.6009 17.4375 15.7501 17.4375H20.3926L12.7501 9.79594L9.39763 13.1475C9.29216 13.2528 9.14919 13.312 9.00013 13.312C8.85107 13.312 8.7081 13.2528 8.60263 13.1475L1.85263 6.39751C1.75327 6.29088 1.69918 6.14984 1.70175 6.00412C1.70432 5.85839 1.76335 5.71935 1.86641 5.61629C1.96947 5.51323 2.10851 5.4542 2.25424 5.45163C2.39996 5.44905 2.541 5.50315 2.64763 5.60251L9.00013 11.9541L12.3526 8.60251C12.4581 8.49717 12.6011 8.438 12.7501 8.438C12.8992 8.438 13.0422 8.49717 13.1476 8.60251L21.1876 16.6425V12C21.1876 11.8508 21.2469 11.7077 21.3524 11.6023C21.4579 11.4968 21.6009 11.4375 21.7501 11.4375C21.8993 11.4375 22.0424 11.4968 22.1479 11.6023C22.2534 11.7077 22.3126 11.8508 22.3126 12Z" fill="black"/>
</svg>
