<svg width="24" height="24" viewBox="0 0 24 24" fill="none" xmlns="http://www.w3.org/2000/svg">
<path d="M22.3126 5.25V11.25C22.3126 11.3992 22.2534 11.5423 22.1479 11.6477C22.0424 11.7532 21.8993 11.8125 21.7501 11.8125C21.6009 11.8125 21.4579 11.7532 21.3524 11.6477C21.2469 11.5423 21.1876 11.3992 21.1876 11.25V6.6075L13.1476 14.6475C13.0422 14.7528 12.8992 14.812 12.7501 14.812C12.6011 14.812 12.4581 14.7528 12.3526 14.6475L9.00013 11.2959L2.64763 17.6475C2.541 17.7469 2.39996 17.801 2.25424 17.7984C2.10851 17.7958 1.96947 17.7368 1.86641 17.6337C1.76335 17.5307 1.70432 17.3916 1.70175 17.2459C1.69918 17.1002 1.75327 16.9591 1.85263 16.8525L8.60263 10.1025C8.7081 9.99716 8.85107 9.93799 9.00013 9.93799C9.14919 9.93799 9.29216 9.99716 9.39763 10.1025L12.7501 13.4541L20.3926 5.8125H15.7501C15.6009 5.8125 15.4579 5.75324 15.3524 5.64775C15.2469 5.54226 15.1876 5.39918 15.1876 5.25C15.1876 5.10082 15.2469 4.95774 15.3524 4.85225C15.4579 4.74676 15.6009 4.6875 15.7501 4.6875H21.7501C21.8993 4.6875 22.0424 4.74676 22.1479 4.85225C22.2534 4.95774 22.3126 5.10082 22.3126 5.25Z" fill="black"/>
</svg>
