<svg width="24" height="24" viewBox="0 0 24 24" fill="none" xmlns="http://www.w3.org/2000/svg">
<path d="M22.8375 13.95C22.7784 13.9943 22.7112 14.0266 22.6396 14.0449C22.568 14.0632 22.4936 14.0673 22.4205 14.0569C22.3473 14.0464 22.277 14.0217 22.2134 13.984C22.1498 13.9464 22.0943 13.8966 22.05 13.8375C21.5806 13.2065 20.9696 12.6945 20.2661 12.3428C19.5627 11.9911 18.7865 11.8094 18 11.8125C17.8508 11.8125 17.7077 11.7532 17.6023 11.6478C17.4968 11.5423 17.4375 11.3992 17.4375 11.25C17.4375 11.1008 17.4968 10.9577 17.6023 10.8523C17.7077 10.7468 17.8508 10.6875 18 10.6875C18.4559 10.6874 18.9026 10.5595 19.2894 10.3182C19.6762 10.077 19.9876 9.7321 20.1882 9.32274C20.3889 8.91339 20.4707 8.45598 20.4244 8.00247C20.3781 7.54895 20.2055 7.11751 19.9263 6.75714C19.6471 6.39677 19.2725 6.12192 18.8449 5.96381C18.4173 5.8057 17.954 5.77066 17.5075 5.86268C17.061 5.95469 16.6492 6.17008 16.319 6.48436C15.9888 6.79864 15.7533 7.19924 15.6394 7.64063C15.6021 7.78509 15.5089 7.90882 15.3804 7.9846C15.2519 8.06037 15.0985 8.08199 14.9541 8.04469C14.8096 8.0074 14.6859 7.91424 14.6101 7.78572C14.5343 7.6572 14.5127 7.50384 14.55 7.35938C14.6914 6.80947 14.9622 6.30133 15.3398 5.87729C15.7174 5.45326 16.1909 5.12563 16.7208 4.92171C17.2507 4.71778 17.8217 4.64347 18.3861 4.70497C18.9506 4.76647 19.4922 4.962 19.9657 5.27526C20.4393 5.58851 20.8311 6.01043 21.1086 6.50583C21.386 7.00123 21.541 7.55577 21.5606 8.12322C21.5803 8.69068 21.464 9.25461 21.2215 9.76802C20.979 10.2814 20.6173 10.7294 20.1666 11.0747C21.2758 11.4886 22.2422 12.2135 22.95 13.1625C22.9943 13.2216 23.0266 13.2888 23.0449 13.3604C23.0632 13.432 23.0673 13.5064 23.0568 13.5796C23.0464 13.6527 23.0217 13.723 22.984 13.7866C22.9464 13.8502 22.8966 13.9057 22.8375 13.95ZM17.7366 19.9688C17.7736 20.0327 17.7976 20.1033 17.8073 20.1766C17.8171 20.2498 17.8122 20.3243 17.7932 20.3957C17.7741 20.4671 17.7412 20.534 17.6962 20.5926C17.6513 20.6513 17.5952 20.7005 17.5312 20.7375C17.446 20.7875 17.3489 20.8137 17.25 20.8134C17.1512 20.8135 17.0541 20.7875 16.9685 20.7382C16.883 20.6888 16.8119 20.6178 16.7625 20.5322C16.2736 19.7038 15.577 19.0172 14.7417 18.5402C13.9063 18.0633 12.961 17.8124 11.9991 17.8124C11.0371 17.8124 10.0918 18.0633 9.25646 18.5402C8.4211 19.0172 7.72457 19.7038 7.23563 20.5322C7.20046 20.5994 7.15206 20.6588 7.09334 20.7069C7.03462 20.7549 6.96679 20.7906 6.89393 20.8117C6.82107 20.8328 6.74469 20.839 6.66937 20.8299C6.59406 20.8207 6.52138 20.7964 6.4557 20.7585C6.39002 20.7205 6.3327 20.6696 6.28719 20.6089C6.24167 20.5482 6.2089 20.479 6.19085 20.4053C6.1728 20.3316 6.16985 20.255 6.18216 20.1802C6.19447 20.1053 6.2218 20.0337 6.2625 19.9697C7.02866 18.6533 8.22827 17.6439 9.65625 17.1141C8.87621 16.6076 8.2808 15.8625 7.95884 14.99C7.63687 14.1175 7.60562 13.1642 7.86972 12.2725C8.13383 11.3807 8.67915 10.5982 9.42434 10.0417C10.1695 9.48526 11.0746 9.1846 12.0047 9.1846C12.9347 9.1846 13.8399 9.48526 14.585 10.0417C15.3302 10.5982 15.8755 11.3807 16.1397 12.2725C16.4038 13.1642 16.3725 14.1175 16.0505 14.99C15.7286 15.8625 15.1332 16.6076 14.3531 17.1141C15.7771 17.6457 16.9728 18.6545 17.7366 19.9688ZM12 16.6875C12.6304 16.6875 13.2467 16.5006 13.7709 16.1503C14.2951 15.8001 14.7036 15.3022 14.9449 14.7198C15.1861 14.1374 15.2492 13.4965 15.1263 12.8782C15.0033 12.2598 14.6997 11.6919 14.2539 11.2461C13.8081 10.8003 13.2402 10.4967 12.6219 10.3738C12.0035 10.2508 11.3626 10.3139 10.7802 10.5551C10.1978 10.7964 9.69994 11.2049 9.34969 11.7291C8.99944 12.2533 8.8125 12.8696 8.8125 13.5C8.8125 14.3454 9.14832 15.1561 9.7461 15.7539C10.3439 16.3517 11.1546 16.6875 12 16.6875ZM6.5625 11.25C6.5625 11.1008 6.50324 10.9577 6.39775 10.8523C6.29226 10.7468 6.14918 10.6875 6 10.6875C5.54418 10.6874 5.09753 10.5594 4.71078 10.3182C4.32402 10.0769 4.01266 9.7321 3.81204 9.3228C3.61143 8.9135 3.5296 8.45615 3.57585 8.00268C3.6221 7.54921 3.79458 7.1178 4.07369 6.75743C4.35281 6.39706 4.72738 6.12217 5.15488 5.96399C5.58237 5.80581 6.04565 5.77066 6.49212 5.86254C6.93858 5.95443 7.35034 6.16966 7.68062 6.4838C8.01091 6.79794 8.24649 7.19839 8.36063 7.63969C8.37909 7.71122 8.41147 7.77842 8.4559 7.83743C8.50034 7.89645 8.55596 7.94614 8.6196 7.98366C8.68323 8.02118 8.75364 8.0458 8.82679 8.05611C8.89994 8.06642 8.97441 8.06222 9.04594 8.04376C9.11747 8.02529 9.18466 7.99291 9.24368 7.94848C9.30269 7.90405 9.35238 7.84842 9.3899 7.78478C9.42742 7.72115 9.45204 7.65074 9.46235 7.57759C9.47266 7.50444 9.46847 7.42997 9.45 7.35844C9.30861 6.80854 9.03782 6.30039 8.66021 5.87636C8.28261 5.45233 7.80911 5.12469 7.2792 4.92077C6.74929 4.71684 6.17831 4.64253 5.61386 4.70403C5.0494 4.76553 4.50782 4.96106 4.03426 5.27432C3.5607 5.58758 3.16887 6.00949 2.89144 6.50489C2.61401 7.00029 2.45901 7.55483 2.43936 8.12229C2.41971 8.68974 2.53598 9.25367 2.77848 9.76708C3.02098 10.2805 3.38268 10.7285 3.83344 11.0738C2.72411 11.4879 1.75771 12.2131 1.05 13.1625C1.00568 13.2216 0.973431 13.2888 0.955099 13.3604C0.936766 13.432 0.932707 13.5064 0.943153 13.5796C0.9536 13.6527 0.978348 13.723 1.01598 13.7866C1.05362 13.8502 1.10341 13.9057 1.1625 13.95C1.22159 13.9943 1.28884 14.0266 1.3604 14.0449C1.43196 14.0632 1.50642 14.0673 1.57955 14.0569C1.65268 14.0464 1.72303 14.0217 1.78659 13.984C1.85015 13.9464 1.90568 13.8966 1.95 13.8375C2.41941 13.2065 3.03044 12.6945 3.73388 12.3428C4.43733 11.9911 5.21353 11.8094 6 11.8125C6.14918 11.8125 6.29226 11.7532 6.39775 11.6478C6.50324 11.5423 6.5625 11.3992 6.5625 11.25Z" fill="black"/>
</svg>
