<svg width="24" height="24" viewBox="0 0 24 24" fill="none" xmlns="http://www.w3.org/2000/svg">
<path d="M15.9372 5.24998C15.9372 5.1008 15.9965 4.95773 16.102 4.85224C16.2075 4.74675 16.3505 4.68748 16.4997 4.68748H18.1872V2.99998C18.1872 2.8508 18.2465 2.70773 18.352 2.60224C18.4575 2.49675 18.6005 2.43748 18.7497 2.43748C18.8989 2.43748 19.042 2.49675 19.1475 2.60224C19.253 2.70773 19.3122 2.8508 19.3122 2.99998V4.68748H20.9997C21.1489 4.68748 21.292 4.74675 21.3975 4.85224C21.503 4.95773 21.5622 5.1008 21.5622 5.24998C21.5622 5.39917 21.503 5.54224 21.3975 5.64773C21.292 5.75322 21.1489 5.81248 20.9997 5.81248H19.3122V7.49998C19.3122 7.64917 19.253 7.79224 19.1475 7.89773C19.042 8.00322 18.8989 8.06248 18.7497 8.06248C18.6005 8.06248 18.4575 8.00322 18.352 7.89773C18.2465 7.79224 18.1872 7.64917 18.1872 7.49998V5.81248H16.4997C16.3505 5.81248 16.2075 5.75322 16.102 5.64773C15.9965 5.54224 15.9372 5.39917 15.9372 5.24998ZM21.43 10.4062C21.7659 12.4034 21.4584 14.4556 20.5519 16.2666C19.6454 18.0776 18.1868 19.5536 16.3867 20.4816C14.5867 21.4097 12.5382 21.7416 10.5372 21.4296C8.53622 21.1175 6.68614 20.1776 5.25411 18.7456C3.82208 17.3136 2.88219 15.4635 2.57015 13.4625C2.2581 11.4615 2.59005 9.41304 3.51805 7.61298C4.44606 5.81292 5.92211 4.35434 7.7331 3.44784C9.54409 2.54134 11.5963 2.23381 13.5935 2.56967C13.6674 2.58074 13.7384 2.60644 13.8023 2.64527C13.8662 2.68409 13.9217 2.73526 13.9656 2.79579C14.0094 2.85631 14.0408 2.92498 14.0579 2.99777C14.0749 3.07056 14.0773 3.14602 14.0648 3.21974C14.0523 3.29345 14.0253 3.36394 13.9853 3.42709C13.9453 3.49023 13.8931 3.54477 13.8317 3.5875C13.7704 3.63024 13.7011 3.66032 13.628 3.67598C13.5549 3.69165 13.4794 3.69258 13.406 3.67873C12.9412 3.6015 12.4709 3.56262 11.9997 3.56248C10.3528 3.56161 8.74164 4.04302 7.36516 4.94729C5.98868 5.85155 4.90711 7.13909 4.25396 8.65097C3.60081 10.1629 3.40467 11.8329 3.68975 13.455C3.97483 15.0771 4.72865 16.5802 5.85816 17.7787C6.74197 16.4045 8.06303 15.3681 9.60816 14.8369C8.83769 14.3237 8.2528 13.5762 7.93998 12.7049C7.62715 11.8337 7.60298 10.8849 7.87106 9.99881C8.13913 9.11275 8.68521 8.33647 9.42856 7.78474C10.1719 7.23301 11.0731 6.93513 11.9988 6.93513C12.9245 6.93513 13.8257 7.23301 14.569 7.78474C15.3124 8.33647 15.8584 9.11275 16.1265 9.99881C16.3946 10.8849 16.3704 11.8337 16.0576 12.7049C15.7448 13.5762 15.1599 14.3237 14.3894 14.8369C15.9345 15.3681 17.2556 16.4045 18.1394 17.7787C19.616 16.2171 20.4383 14.1492 20.4372 12C20.437 11.5288 20.3982 11.0585 20.321 10.5937C20.3071 10.5203 20.3081 10.4448 20.3237 10.3717C20.3394 10.2986 20.3695 10.2293 20.4122 10.168C20.4549 10.1066 20.5095 10.0544 20.5726 10.0144C20.6358 9.9744 20.7063 9.94737 20.78 9.93491C20.8537 9.92244 20.9291 9.9248 21.0019 9.94184C21.0747 9.95888 21.1434 9.99026 21.2039 10.0341C21.2644 10.078 21.3156 10.1335 21.3544 10.1974C21.3933 10.2613 21.419 10.3323 21.43 10.4062ZM11.9997 14.4375C12.6301 14.4375 13.2464 14.2505 13.7706 13.9003C14.2948 13.55 14.7033 13.0522 14.9446 12.4698C15.1858 11.8873 15.249 11.2464 15.126 10.6281C15.003 10.0098 14.6994 9.44186 14.2536 8.99608C13.8078 8.5503 13.2399 8.24672 12.6216 8.12373C12.0033 8.00074 11.3624 8.06386 10.7799 8.30512C10.1975 8.54637 9.69966 8.95492 9.34941 9.4791C8.99916 10.0033 8.81222 10.6196 8.81222 11.25C8.81222 12.0954 9.14804 12.9061 9.74582 13.5039C10.3436 14.1017 11.1543 14.4375 11.9997 14.4375ZM11.9997 20.4375C13.9302 20.4405 15.8028 19.7783 17.3022 18.5625C16.7521 17.6477 15.9747 16.8909 15.0456 16.3654C14.1164 15.84 13.0671 15.5638 11.9997 15.5638C10.9323 15.5638 9.88302 15.84 8.95388 16.3654C8.02474 16.8909 7.24733 17.6477 6.69722 18.5625C8.19668 19.7783 10.0693 20.4405 11.9997 20.4375Z" fill="black"/>
</svg>
