<svg width="24" height="24" viewBox="0 0 24 24" fill="none" xmlns="http://www.w3.org/2000/svg">
<path d="M22.3125 12C22.3125 12.1492 22.2532 12.2923 22.1477 12.3978C22.0423 12.5032 21.8992 12.5625 21.75 12.5625H19.0978L15.5034 19.7513C15.4567 19.8448 15.3849 19.9235 15.296 19.9785C15.207 20.0334 15.1046 20.0625 15 20.0625H14.9719C14.8628 20.0571 14.7577 20.0202 14.6693 19.9561C14.5809 19.892 14.5131 19.8036 14.4741 19.7016L8.95406 5.20969L5.76188 12.2325C5.71724 12.3308 5.64523 12.4143 5.55446 12.4728C5.46369 12.5313 5.358 12.5624 5.25 12.5625H2.25C2.10082 12.5625 1.95774 12.5032 1.85225 12.3978C1.74676 12.2923 1.6875 12.1492 1.6875 12C1.6875 11.8508 1.74676 11.7077 1.85225 11.6023C1.95774 11.4968 2.10082 11.4375 2.25 11.4375H4.88812L8.48812 3.51751C8.53399 3.4164 8.60874 3.33114 8.70297 3.27244C8.7972 3.21374 8.90669 3.18424 9.01765 3.18764C9.12862 3.19105 9.23609 3.22722 9.32654 3.29159C9.41699 3.35596 9.48637 3.44566 9.52594 3.54938L15.0694 18.1031L18.2466 11.7488C18.2933 11.6552 18.3651 11.5765 18.454 11.5216C18.543 11.4666 18.6455 11.4375 18.75 11.4375H21.75C21.8992 11.4375 22.0423 11.4968 22.1477 11.6023C22.2532 11.7077 22.3125 11.8508 22.3125 12Z" fill="black"/>
</svg>
