<svg width="24" height="24" viewBox="0 0 24 24" fill="none" xmlns="http://www.w3.org/2000/svg">
<path d="M2.25 19.5C2.25 19.6989 2.32902 19.8897 2.46967 20.0303C2.61032 20.171 2.80109 20.25 3 20.25H21C21.1989 20.25 21.3897 20.171 21.5303 20.0303C21.671 19.8897 21.75 19.6989 21.75 19.5C21.75 19.3011 21.671 19.1103 21.5303 18.9697C21.3897 18.829 21.1989 18.75 21 18.75H20.25V12.75C20.25 12.5511 20.171 12.3603 20.0303 12.2197C19.8897 12.079 19.6989 12 19.5 12H17.25C17.0511 12 16.8603 12.079 16.7197 12.2197C16.579 12.3603 16.5 12.5511 16.5 12.75V18.75H15V8.25C15 8.05109 14.921 7.86032 14.7803 7.71967C14.6397 7.57902 14.4489 7.5 14.25 7.5H11.25C11.0511 7.5 10.8603 7.57902 10.7197 7.71967C10.579 7.86032 10.5 8.05109 10.5 8.25V18.75H9V3.75C9 3.55109 8.92098 3.36032 8.78033 3.21967C8.63968 3.07902 8.44891 3 8.25 3H4.5C4.30109 3 4.11032 3.07902 3.96967 3.21967C3.82902 3.36032 3.75 3.55109 3.75 3.75V18.75H3C2.80109 18.75 2.61032 18.829 2.46967 18.9697C2.32902 19.1103 2.25 19.3011 2.25 19.5Z" fill="black"/>
</svg>
