<svg width="24" height="24" viewBox="0 0 24 24" fill="none" xmlns="http://www.w3.org/2000/svg">
<path d="M22.4999 12V18C22.4999 18.1989 22.4209 18.3897 22.2803 18.5303C22.1396 18.671 21.9488 18.75 21.7499 18.75H15.7499C15.6015 18.7501 15.4564 18.7062 15.3329 18.6238C15.2095 18.5414 15.1133 18.4242 15.0565 18.2871C14.9996 18.15 14.9848 17.9991 15.0138 17.8535C15.0428 17.7079 15.1143 17.5743 15.2193 17.4694L17.6896 15L12.7499 10.0603L9.53055 13.2806C9.4609 13.3503 9.37818 13.4057 9.28713 13.4434C9.19609 13.4812 9.09849 13.5006 8.99993 13.5006C8.90137 13.5006 8.80377 13.4812 8.71272 13.4434C8.62168 13.4057 8.53896 13.3503 8.4693 13.2806L1.7193 6.53062C1.57857 6.38988 1.49951 6.19901 1.49951 5.99999C1.49951 5.80097 1.57857 5.6101 1.7193 5.46936C1.86003 5.32863 2.05091 5.24957 2.24993 5.24957C2.44895 5.24957 2.63982 5.32863 2.78055 5.46936L8.99993 11.6897L12.2193 8.46936C12.289 8.39963 12.3717 8.34431 12.4627 8.30657C12.5538 8.26883 12.6514 8.2494 12.7499 8.2494C12.8485 8.2494 12.9461 8.26883 13.0371 8.30657C13.1282 8.34431 13.2109 8.39963 13.2806 8.46936L18.7499 13.9397L21.2193 11.4694C21.3242 11.3644 21.4579 11.2928 21.6034 11.2638C21.749 11.2349 21.8999 11.2497 22.037 11.3065C22.1741 11.3633 22.2913 11.4596 22.3737 11.583C22.4561 11.7064 22.5 11.8516 22.4999 12Z" fill="black"/>
</svg>
