<svg width="24" height="24" viewBox="0 0 24 24" fill="none" xmlns="http://www.w3.org/2000/svg">
<path d="M12 2.25C10.0716 2.25 8.18657 2.82183 6.58319 3.89317C4.97982 4.96451 3.73013 6.48726 2.99218 8.26884C2.25422 10.0504 2.06114 12.0108 2.43735 13.9021C2.81355 15.7934 3.74215 17.5307 5.10571 18.8943C6.46928 20.2579 8.20656 21.1865 10.0979 21.5627C11.9892 21.9389 13.9496 21.7458 15.7312 21.0078C17.5127 20.2699 19.0355 19.0202 20.1068 17.4168C21.1782 15.8134 21.75 13.9284 21.75 12C21.7473 9.41498 20.7192 6.93661 18.8913 5.10872C17.0634 3.28084 14.585 2.25273 12 2.25ZM12 18.75C10.5139 18.7502 9.06929 18.26 7.89023 17.3554C6.71117 16.4508 5.86359 15.1824 5.47898 13.747C5.09437 12.3115 5.19422 10.7892 5.76305 9.41632C6.33188 8.0434 7.33788 6.89657 8.625 6.15375C8.7968 6.06046 8.99824 6.03794 9.18639 6.09098C9.37455 6.14402 9.53457 6.26843 9.63235 6.43772C9.73013 6.607 9.75795 6.80777 9.70988 6.99726C9.66181 7.18675 9.54165 7.34998 9.375 7.45219C8.37413 8.03004 7.59191 8.922 7.14964 9.98973C6.70737 11.0575 6.62978 12.2413 6.92889 13.3576C7.22801 14.4739 7.88713 15.4604 8.80401 16.1639C9.72089 16.8675 10.8443 17.2488 12 17.2488C13.1557 17.2488 14.2791 16.8675 15.196 16.1639C16.1129 15.4604 16.772 14.4739 17.0711 13.3576C17.3702 12.2413 17.2926 11.0575 16.8504 9.98973C16.4081 8.922 15.6259 8.03004 14.625 7.45219C14.4584 7.34998 14.3382 7.18675 14.2901 6.99726C14.2421 6.80777 14.2699 6.607 14.3677 6.43772C14.4654 6.26843 14.6255 6.14402 14.8136 6.09098C15.0018 6.03794 15.2032 6.06046 15.375 6.15375C16.6621 6.89657 17.6681 8.0434 18.237 9.41632C18.8058 10.7892 18.9056 12.3115 18.521 13.747C18.1364 15.1824 17.2888 16.4508 16.1098 17.3554C14.9307 18.26 13.4861 18.7502 12 18.75Z" fill="black"/>
</svg>
