<svg width="24" height="24" viewBox="0 0 24 24" fill="none" xmlns="http://www.w3.org/2000/svg">
<path d="M5.25 6.74999H8.98125C9.25406 6.73405 14.0081 6.39936 18.5353 2.60249C18.7539 2.41888 19.0204 2.30148 19.3034 2.26406C19.5865 2.22665 19.8743 2.27079 20.1331 2.39129C20.3919 2.51179 20.611 2.70364 20.7645 2.94432C20.9181 3.185 20.9998 3.4645 21 3.74999V18.75C21 19.0356 20.9184 19.3152 20.7649 19.556C20.6114 19.7968 20.3924 19.9888 20.1335 20.1094C19.8747 20.23 19.5868 20.2743 19.3037 20.2369C19.0206 20.1995 18.754 20.0821 18.5353 19.8984C14.9944 16.9284 11.3166 16.0772 9.75 15.8391V18.8128C9.75031 19.06 9.68954 19.3034 9.57309 19.5214C9.45664 19.7394 9.28811 19.9253 9.0825 20.0625L8.05125 20.7497C7.85192 20.8827 7.62362 20.9661 7.38546 20.9927C7.1473 21.0194 6.90622 20.9886 6.68241 20.903C6.45859 20.8173 6.25855 20.6793 6.09904 20.5004C5.93954 20.3216 5.82521 20.1071 5.76562 19.875L4.66219 15.7162C3.5215 15.5761 2.47765 15.0048 1.74473 14.1196C1.01181 13.2344 0.645365 12.1022 0.720547 10.9554C0.795731 9.80863 1.30684 8.73405 2.14906 7.95208C2.99128 7.1701 4.10077 6.74001 5.25 6.74999ZM7.21875 19.4897V19.5L8.25 18.8128V15.75H6.225L7.21875 19.4897ZM5.25 14.25H8.25V8.24999H5.25C4.45435 8.24999 3.69129 8.56606 3.12868 9.12867C2.56607 9.69128 2.25 10.4543 2.25 11.25C2.25 12.0456 2.56607 12.8087 3.12868 13.3713C3.69129 13.9339 4.45435 14.25 5.25 14.25Z" fill="black"/>
</svg>
