<svg width="18" height="18" viewBox="0 0 18 18" fill="none" xmlns="http://www.w3.org/2000/svg">
    <path
        d="M16.5466 7.31248L12.787 11.0847C13.1077 11.9756 13.2406 13.4676 11.8596 15.3035C11.763 15.4326 11.6397 15.5393 11.4981 15.6164C11.3565 15.6934 11.1999 15.739 11.0391 15.75C11.0123 15.75 10.9863 15.75 10.9596 15.75C10.8118 15.75 10.6654 15.7209 10.5288 15.6643C10.3923 15.6077 10.2682 15.5248 10.1637 15.4202L6.7704 12.0234L3.77297 15.023C3.66743 15.1285 3.52427 15.1878 3.37501 15.1878C3.22574 15.1878 3.08258 15.1285 2.97704 15.023C2.87149 14.9174 2.81219 14.7742 2.81219 14.625C2.81219 14.4757 2.87149 14.3326 2.97704 14.227L5.97657 11.2296L2.58047 7.8335C2.46885 7.72173 2.38201 7.58771 2.32561 7.44015C2.26921 7.2926 2.24452 7.13482 2.25314 6.97709C2.26176 6.81936 2.30351 6.66521 2.37565 6.52469C2.4478 6.38416 2.54873 6.2604 2.67188 6.16147C4.45922 4.71936 6.16993 5.00272 6.91876 5.23756L10.6875 1.45545C10.792 1.35096 10.916 1.26807 11.0525 1.21151C11.189 1.15496 11.3353 1.12585 11.4831 1.12585C11.6309 1.12585 11.7772 1.15496 11.9137 1.21151C12.0502 1.26807 12.1742 1.35096 12.2787 1.45545L16.5459 5.72201C16.7569 5.93288 16.8754 6.21886 16.8755 6.5171C16.8757 6.81534 16.7574 7.10143 16.5466 7.31248Z"
        fill="white" />
</svg>
