<svg width="24" height="24" viewBox="0 0 24 24" fill="none" xmlns="http://www.w3.org/2000/svg">
<path d="M15.4189 18.3403C15.4927 18.4535 15.5346 18.5845 15.5401 18.7195C15.5456 18.8545 15.5145 18.9884 15.4502 19.1072C15.3858 19.226 15.2906 19.3252 15.1745 19.3944C15.0585 19.4635 14.9259 19.5 14.7908 19.5H0.958893C0.823795 19.5 0.69121 19.4635 0.575146 19.3944C0.459082 19.3252 0.363848 19.226 0.299506 19.1072C0.235165 18.9884 0.204104 18.8545 0.209607 18.7195C0.21511 18.5845 0.256971 18.4535 0.330768 18.3403C1.38649 16.7153 2.93935 15.4752 4.75764 14.805C3.75245 14.1358 2.9893 13.1609 2.58105 12.0244C2.17279 10.888 2.1411 9.6503 2.49067 8.49443C2.84023 7.33856 3.55249 6.32587 4.52212 5.60611C5.49174 4.88635 6.66726 4.49774 7.87483 4.49774C9.0824 4.49774 10.2579 4.88635 11.2275 5.60611C12.1972 6.32587 12.9094 7.33856 13.259 8.49443C13.6086 9.6503 13.5769 10.888 13.1686 12.0244C12.7604 13.1609 11.9972 14.1358 10.992 14.805C12.8103 15.4752 14.3632 16.7153 15.4189 18.3403ZM23.6605 18.3263C22.6044 16.7081 21.0551 15.4733 19.242 14.805C20.4287 14.0057 21.2662 12.7842 21.5839 11.3891C21.9017 9.99405 21.676 8.53032 20.9526 7.29586C20.2292 6.0614 19.0626 5.149 17.6902 4.74436C16.3178 4.33973 14.8428 4.47328 13.5655 5.11784C13.5166 5.14306 13.4739 5.17871 13.4404 5.22226C13.4068 5.26582 13.3833 5.31622 13.3714 5.36989C13.3595 5.42356 13.3595 5.47918 13.3715 5.53283C13.3835 5.58648 13.4072 5.63684 13.4408 5.68034C14.3906 6.86516 14.9361 8.323 14.9973 9.84032C15.0586 11.3576 14.6324 12.8547 13.7811 14.1122C13.7261 14.1944 13.7057 14.295 13.7245 14.3921C13.7433 14.4892 13.7997 14.5749 13.8814 14.6306C14.9913 15.4053 15.9414 16.3866 16.6798 17.521C16.9776 17.977 17.0993 18.5259 17.022 19.065C17.0133 19.1187 17.0164 19.1735 17.031 19.2259C17.0456 19.2782 17.0714 19.3267 17.1066 19.3681C17.1419 19.4095 17.1857 19.4427 17.235 19.4655C17.2843 19.4883 17.338 19.5 17.3923 19.5H23.0455C23.2106 19.5001 23.3712 19.4456 23.5022 19.3451C23.6332 19.2446 23.7274 19.1036 23.7701 18.9441C23.7962 18.8392 23.7999 18.7299 23.781 18.6235C23.7621 18.5171 23.7211 18.4158 23.6605 18.3263Z" fill="black"/>
</svg>
