<svg width="24" height="24" viewBox="0 0 24 24" fill="none" xmlns="http://www.w3.org/2000/svg">
<path d="M19.4998 8.99998C19.4998 8.77748 19.5658 8.55997 19.6894 8.37497C19.813 8.18996 19.9887 8.04577 20.1943 7.96062C20.3998 7.87547 20.626 7.85319 20.8442 7.8966C21.0625 7.94001 21.2629 8.04716 21.4203 8.20449C21.5776 8.36182 21.6847 8.56228 21.7282 8.78051C21.7716 8.99874 21.7493 9.22494 21.6641 9.4305C21.579 9.63607 21.4348 9.81177 21.2498 9.93539C21.0648 10.059 20.8473 10.125 20.6248 10.125C20.3264 10.125 20.0403 10.0065 19.8293 9.79548C19.6183 9.5845 19.4998 9.29835 19.4998 8.99998ZM18.3748 6.74998C18.5973 6.74998 18.8148 6.684 18.9998 6.56039C19.1848 6.43677 19.329 6.26107 19.4141 6.0555C19.4993 5.84994 19.5216 5.62374 19.4782 5.40551C19.4347 5.18728 19.3276 4.98682 19.1703 4.82949C19.0129 4.67216 18.8125 4.56501 18.5942 4.5216C18.376 4.47819 18.1498 4.50047 17.9443 4.58562C17.7387 4.67077 17.563 4.81496 17.4394 4.99997C17.3158 5.18497 17.2498 5.40248 17.2498 5.62498C17.2498 5.92335 17.3683 6.2095 17.5793 6.42048C17.7903 6.63146 18.0764 6.74998 18.3748 6.74998ZM21.0616 12C20.8635 11.9836 20.667 12.0467 20.5153 12.1752C20.3635 12.3037 20.2691 12.4872 20.2526 12.6853C20.1184 14.2532 19.5391 15.7502 18.583 17.0001C17.6268 18.25 16.3336 19.2008 14.8554 19.7406C13.3773 20.2805 11.7757 20.3869 10.2391 20.0474C8.70245 19.7078 7.29479 18.9365 6.18169 17.8241C5.06859 16.7117 4.29637 15.3045 3.95588 13.7681C3.61539 12.2318 3.7208 10.6301 4.25972 9.15157C4.79863 7.67306 5.74861 6.37923 6.9979 5.42231C8.24719 4.46539 9.7438 3.88519 11.3116 3.74998C11.4101 3.74186 11.5061 3.71441 11.594 3.66922C11.6818 3.62402 11.76 3.56195 11.8239 3.48656C11.8878 3.41117 11.9362 3.32394 11.9664 3.22983C11.9965 3.13573 12.0079 3.0366 11.9998 2.93811C11.9916 2.83962 11.9642 2.74369 11.919 2.65581C11.8738 2.56792 11.8117 2.4898 11.7364 2.4259C11.661 2.362 11.5737 2.31358 11.4796 2.2834C11.3855 2.25321 11.2864 2.24186 11.1879 2.24998C9.33542 2.40933 7.56699 3.09443 6.09066 4.22469C4.61432 5.35496 3.4915 6.88336 2.8543 8.63008C2.2171 10.3768 2.09203 12.2692 2.49379 14.0846C2.89556 15.9 3.80745 17.5628 5.12219 18.8776C6.43692 20.1923 8.09981 21.1042 9.9152 21.506C11.7306 21.9077 13.623 21.7827 15.3697 21.1455C17.1164 20.5083 18.6448 19.3854 19.7751 17.9091C20.9053 16.4328 21.5904 14.6643 21.7498 12.8119C21.7582 12.7133 21.7471 12.614 21.7171 12.5198C21.687 12.4256 21.6386 12.3382 21.5747 12.2627C21.5107 12.1873 21.4324 12.1252 21.3444 12.0801C21.2564 12.035 21.1603 12.0078 21.0616 12ZM11.9998 5.24998C13.3348 5.24998 14.6398 5.64586 15.7499 6.38756C16.8599 7.12926 17.7251 8.18347 18.236 9.41687C18.7469 10.6503 18.8805 12.0075 18.6201 13.3168C18.3596 14.6262 17.7167 15.8289 16.7727 16.773C15.8287 17.717 14.626 18.3598 13.3166 18.6203C12.0073 18.8807 10.6501 18.7471 9.41666 18.2362C8.18326 17.7253 7.12905 16.8601 6.38735 15.7501C5.64565 14.6401 5.24977 13.335 5.24977 12C5.25176 10.2104 5.96356 8.49465 7.229 7.22921C8.49444 5.96377 10.2102 5.25197 11.9998 5.24998ZM11.2498 12C11.2498 12.1989 11.3288 12.3897 11.4694 12.5303C11.6101 12.671 11.8009 12.75 11.9998 12.75H16.4998C16.6987 12.75 16.8895 12.671 17.0301 12.5303C17.1708 12.3897 17.2498 12.1989 17.2498 12C17.2498 11.8011 17.1708 11.6103 17.0301 11.4697C16.8895 11.329 16.6987 11.25 16.4998 11.25H12.7498V7.49998C12.7498 7.30107 12.6708 7.11031 12.5301 6.96965C12.3895 6.829 12.1987 6.74998 11.9998 6.74998C11.8009 6.74998 11.6101 6.829 11.4694 6.96965C11.3288 7.11031 11.2498 7.30107 11.2498 7.49998V12ZM14.9998 4.49998C15.2223 4.49998 15.4398 4.434 15.6248 4.31039C15.8098 4.18677 15.954 4.01107 16.0391 3.8055C16.1243 3.59994 16.1466 3.37374 16.1032 3.15551C16.0597 2.93728 15.9526 2.73682 15.7953 2.57949C15.6379 2.42216 15.4375 2.31501 15.2192 2.2716C15.001 2.22819 14.7748 2.25047 14.5693 2.33562C14.3637 2.42077 14.188 2.56496 14.0644 2.74997C13.9408 2.93497 13.8748 3.15248 13.8748 3.37498C13.8748 3.67335 13.9933 3.9595 14.2043 4.17048C14.4153 4.38146 14.7014 4.49998 14.9998 4.49998Z" fill="black"/>
</svg>
