<svg width="24" height="24" viewBox="0 0 24 24" fill="none" xmlns="http://www.w3.org/2000/svg">
<g clip-path="url(#clip0_1034_8076)">
<path d="M23.7807 12.5306L20.7807 15.5306C20.711 15.6004 20.6283 15.6557 20.5372 15.6934C20.4462 15.7312 20.3486 15.7506 20.25 15.7506C20.1515 15.7506 20.0539 15.7312 19.9628 15.6934C19.8718 15.6557 19.7891 15.6004 19.7194 15.5306L18.2194 14.0306C18.0787 13.8899 17.9996 13.699 17.9996 13.5C17.9996 13.301 18.0787 13.1101 18.2194 12.9694C18.3601 12.8286 18.551 12.7496 18.75 12.7496C18.9491 12.7496 19.1399 12.8286 19.2807 12.9694L20.25 13.9397L22.7194 11.4694C22.8601 11.3286 23.051 11.2496 23.25 11.2496C23.4491 11.2496 23.6399 11.3286 23.7807 11.4694C23.9214 11.6101 24.0005 11.801 24.0005 12C24.0005 12.199 23.9214 12.3899 23.7807 12.5306ZM13.5 14.7825C14.6757 14.0502 15.581 12.9549 16.0788 11.6624C16.5766 10.3698 16.6399 8.95028 16.259 7.61855C15.8782 6.28681 15.074 5.11534 13.9682 4.28135C12.8623 3.44736 11.5148 2.99625 10.1297 2.99625C8.74461 2.99625 7.39718 3.44736 6.29128 4.28135C5.18539 5.11534 4.3812 6.28681 4.00039 7.61855C3.61958 8.95028 3.68286 10.3698 4.18066 11.6624C4.67846 12.9549 5.58369 14.0502 6.75941 14.7825C4.82347 15.4162 3.08159 16.6003 1.68097 18.2672C1.58927 18.3762 1.53051 18.509 1.51155 18.6502C1.4926 18.7914 1.51423 18.935 1.57393 19.0643C1.63362 19.1937 1.72891 19.3033 1.84864 19.3805C1.96837 19.4576 2.1076 19.4991 2.25003 19.5H18C18.1429 19.5001 18.2829 19.4595 18.4035 19.3827C18.524 19.306 18.6202 19.1964 18.6806 19.0669C18.7409 18.9373 18.7631 18.7933 18.7443 18.6516C18.7256 18.5099 18.6667 18.3765 18.5747 18.2672C17.1732 16.6003 15.4313 15.4162 13.5 14.7825Z" fill="black"/>
</g>
<defs>
<clipPath id="clip0_1034_8076">
<rect width="24" height="24" fill="white"/>
</clipPath>
</defs>
</svg>
