<svg id="Layer_1" enable-background="new 0 0 512 512" viewBox="0 0 512 512" xmlns="http://www.w3.org/2000/svg"><path clip-rule="evenodd" d="m425.179 280.609c-17.424 19.403-17.605 46.119-2.388 65.495v-32.726c0-4.496 3.645-8.141 8.141-8.141s8.141 3.645 8.141 8.141v33.19c18.213-21.638 15.763-51.648-4.929-70.731-1.153-1.063-2.905-1.085-4.084-.05-1.711 1.502-3.344 3.11-4.881 4.822zm56.703 137.53h-101.9c-2.084 0-3.547 2.014-2.903 3.996l18.626 57.323c.693 2.132 2.597 3.516 4.839 3.516h60.779c2.242 0 4.146-1.383 4.839-3.516l18.625-57.323c.643-1.982-.821-3.996-2.905-3.996zm-451.182-31.624c-.454-4.001-4.156-6.928-8.183-6.472-3.968.378-6.914 4.282-6.473 8.181l8.341 73.606h14.85c-2.845-25.105-5.69-50.21-8.535-75.315zm305.024 96.247c0 4.496-3.645 8.141-8.141 8.141-4.495 0-8.14-3.645-8.14-8.141v-4.651h16.281zm-294.85 0c0 4.496-3.645 8.141-8.141 8.141s-8.14-3.645-8.14-8.141v-4.651h16.281zm139.285-461.665c39.93 0 72.3 32.371 72.3 72.301s-32.371 72.301-72.3 72.301-72.301-32.371-72.301-72.301 32.371-72.301 72.301-72.301zm34.948 25.841-4.412 4.412c-3.178 3.179-3.178 8.332 0 11.511 3.179 3.179 8.333 3.179 11.511 0l4.412-4.412c3.179-3.179 3.179-8.332 0-11.511-3.178-3.179-8.332-3.179-11.511 0zm-43.089 19.105v27.355c0 3.288 1.95 6.121 4.756 7.405l17.61 10.167c3.881 2.23 8.836.892 11.066-2.99 2.23-3.881.892-8.836-2.989-11.066l-14.162-8.176v-22.695c0-4.496-3.645-8.14-8.141-8.14-4.495 0-8.14 3.645-8.14 8.14zm65.706 19.215h-6.24c-4.496 0-8.141 3.645-8.141 8.14 0 4.496 3.645 8.141 8.141 8.141h6.24c4.496 0 8.141-3.645 8.141-8.141-.001-4.496-3.646-8.14-8.141-8.14zm-11.105 43.089-4.412-4.412c-3.178-3.179-8.332-3.179-11.511 0-3.178 3.179-3.178 8.333 0 11.511l4.412 4.412c3.179 3.179 8.333 3.179 11.511 0 3.179-3.178 3.179-8.332 0-11.511zm-38.32 22.616v-6.24c0-4.496-3.645-8.141-8.14-8.141-4.496 0-8.141 3.645-8.141 8.141v6.24c0 4.496 3.645 8.141 8.141 8.141 4.495 0 8.14-3.645 8.14-8.141zm-43.09-11.105 4.412-4.412c3.179-3.179 3.179-8.333 0-11.511-3.179-3.179-8.333-3.179-11.511 0l-4.412 4.412c-3.179 3.179-3.179 8.333 0 11.511 3.179 3.179 8.333 3.179 11.511 0zm-22.615-38.319h6.24c4.496 0 8.141-3.645 8.141-8.141s-3.645-8.14-8.141-8.14h-6.24c-4.496 0-8.141 3.645-8.141 8.14 0 4.496 3.645 8.141 8.141 8.141zm11.104-43.09 4.412 4.412c3.178 3.179 8.333 3.179 11.511 0 3.179-3.179 3.179-8.333 0-11.511l-4.412-4.412c-3.178-3.179-8.332-3.179-11.511 0s-3.179 8.333 0 11.511zm38.32-22.616v6.24c0 4.496 3.645 8.14 8.141 8.14s8.14-3.645 8.14-8.14v-6.24c0-4.496-3.645-8.141-8.14-8.141-4.496.001-8.141 3.645-8.141 8.141zm16.305 355.43v37.358h120.166l4.973-43.886c.099-.87.243-1.723.432-2.559-4.499-30.817-31.229-54.027-62.457-54.027-34.695 0-63.114 28.418-63.114 63.114zm-16.281 37.358v-37.358c0-34.696-28.418-63.114-63.114-63.114-31.277 0-58.037 23.283-62.476 54.161.174.792.309 1.601.402 2.424l4.973 43.886h120.215zm134.602 16.281c-84.324 0-168.647 0-252.971 0l1.918 16.928h249.135zm14.437 16.928h14.849l8.341-73.606c.449-3.972-2.481-7.726-6.467-8.181-4.043-.385-7.726 2.385-8.189 6.471-2.844 25.106-5.689 50.211-8.534 75.316zm53.719-112.793c20.292 0 38.076 10.73 47.991 26.825v8.819l-19.622-14.266c-3.635-2.634-8.718-1.823-11.352 1.812s-1.823 8.718 1.813 11.352l24.354 17.706c-26.794-1.741-48.478-22.215-52.09-48.456-.236-1.712.972-3.262 2.69-3.451 2.041-.224 4.115-.341 6.216-.341zm112.263 0c-20.292 0-38.076 10.73-47.991 26.825v8.819l19.623-14.266c3.635-2.634 8.718-1.823 11.352 1.812s1.823 8.718-1.813 11.352l-24.354 17.706c26.794-1.741 48.478-22.215 52.09-48.456.236-1.712-.973-3.262-2.69-3.451-2.042-.224-4.116-.341-6.217-.341z" fill-rule="evenodd"/></svg>