<svg id="layer_1" enable-background="new 0 0 32 32" viewBox="0 0 32 32" xmlns="http://www.w3.org/2000/svg"><path d="m27 2h-4.237793c-.5522461 0-1 .4477539-1 1s.4477539 1 1 1h4.237793c.5512695 0 1 .4487305 1 1v4.2172852c0 .5522461.4477539 1 1 1s1-.4477539 1-1v-4.2172852c0-1.6542969-1.3457031-3-3-3z"/><path d="m3 10.2172852c.5522461 0 1-.4477539 1-1v-4.2172852c0-.5512695.4487305-1 1-1h4.1972656c.5522461 0 1-.4477539 1-1s-.4477539-1-1-1h-4.1972656c-1.6542969 0-3 1.3457031-3 3v4.2172852c0 .552246.4477539 1 1 1z"/><path d="m29 21.7827148c-.5522461 0-1 .4477539-1 1v4.2172852c0 .5512695-.4487305 1-1 1h-4.237793c-.5522461 0-1 .4477539-1 1s.4477539 1 1 1h4.237793c1.6542969 0 3-1.3457031 3-3v-4.2172852c0-.552246-.4477539-1-1-1z"/><path d="m5 30h4.1972656c.5522461 0 1-.4477539 1-1s-.4477539-1-1-1h-4.1972656c-.5512695 0-1-.4487305-1-1v-4.2172852c0-.5522461-.4477539-1-1-1s-1 .4477539-1 1v4.2172852c0 1.6542969 1.3457031 3 3 3z"/><path d="m7.7578125 19.328125-.671875 2.375c-.1938477.7001953-.0532227 1.4331055.3857422 2.0107422.4379883.5761719 1.1044922.90625 1.828125.90625h6.7602539c.5522461 0 1-.4477539 1-1s-.4477539-1-1-1h-6.7602539c-.121582 0-.1953125-.0634766-.2358398-.1166992-.0341797-.0449219-.0859375-.1386719-.0517578-.2612305l.6689453-2.3657227c.3549805-1.234375 1.4975586-2.0966797 2.7788086-2.0966797h3.5303955c.0032959 0 .0063477.0009766.0096436.0009766s.0063477-.0009766.0096436-.0009766h3.5303955c.5180664 0 1.0390625.1479492 1.5058594.4277344.4746094.2841797 1.0878906.1303711 1.371582-.3432617.2841797-.4736328.1303711-1.0878906-.3432617-1.371582-.6299438-.3778687-1.3256226-.6030884-2.0350952-.6781006.7144165-.8905029 1.1600952-2.005249 1.1600952-3.2330322 0-2.8666992-2.3325195-5.1992188-5.1992188-5.1992188s-5.1992188 2.3325195-5.1992188 5.1992188c0 1.2307739.4478149 2.3479004 1.1654053 3.2394409-1.9611817.203125-3.6536914 1.5776367-4.2083741 3.5071411zm8.2421875-9.9458008c1.7641602 0 3.1992188 1.4350586 3.1992188 3.1992188 0 1.7608643-1.4299316 3.1928711-3.1895752 3.1982422h-.0192871c-1.7596436-.0053711-3.1895752-1.4373779-3.1895752-3.1982422-.0000001-1.7641602 1.4350585-3.1992188 3.1992187-3.1992188z"/><path d="m20.074707 20.6791992c-.390625-.390625-1.0234375-.390625-1.4140625 0-.390625.3901367-.390625 1.0234375 0 1.4140625l1.9091797 1.909668c.1875.1875.4418945.2929688.7070312.2929688s.5195312-.1054688.7070312-.2929688l3.3554688-3.355957c.390625-.390625.390625-1.0239258 0-1.4140625-.390625-.390625-1.0234375-.390625-1.4140625 0l-2.6484375 2.6484375z"/></svg>