<svg id="Layer_1" enable-background="new 0 0 512 512" viewBox="0 0 512 512" xmlns="http://www.w3.org/2000/svg"><path clip-rule="evenodd" d="m305.883 199.961c-14.043-14.042-33.444-22.728-54.873-22.728-21.43 0-40.831 8.686-54.873 22.728s-22.728 33.443-22.728 54.873 8.686 40.83 22.728 54.873c14.042 14.042 33.443 22.728 54.873 22.728s40.83-8.686 54.873-22.728c14.042-14.043 22.728-33.443 22.728-54.873s-8.686-40.831-22.728-54.873zm34.358-151.377c-19.671-8.627-40.782-14.537-62.855-17.261v105.398c8.206 1.918 16.078 4.652 23.524 8.111 7.447 3.459 14.501 7.658 21.07 12.502l73.928-73.928c-16.646-14.142-35.375-25.923-55.667-34.822zm136.831 134.672c7.734 22.802 11.928 47.267 11.928 72.744 0 23.657-3.617 46.442-10.326 67.833-6.104 19.462-14.749 37.773-25.542 54.541l-76.78-76.781c2.579-6.418 4.626-13.087 6.089-19.953 1.77-8.306 2.701-16.885 2.701-25.641 0-10.806-1.417-21.325-4.077-31.378-2.268-8.575-5.444-16.783-9.418-24.515l75.412-75.412c12.685 17.784 22.861 37.476 30.013 58.562zm-132.185 278.04c21.77-10.143 41.641-23.624 58.949-39.776l-73.546-73.547c-7.366 6.482-15.531 12.101-24.334 16.693-8.942 4.665-18.522 8.259-28.57 10.612v105.399c23.804-2.939 46.504-9.598 67.501-19.381zm-262.709-52.642c-36.757-40.227-59.178-93.805-59.178-152.654s22.421-112.427 59.178-152.655c35.479-38.829 84.3-65.253 139.2-72.021v105.399c-26.364 6.168-49.454 20.85-66.209 40.989-17.678 21.25-28.311 48.541-28.311 78.288s10.632 57.038 28.311 78.287c16.755 20.139 39.845 34.821 66.209 40.989v105.399c-54.9-6.767-103.721-33.192-139.2-72.021zm175.184-116.069v8.192c0 3.866-3.134 7-7 7s-7-3.134-7-7v-8.14h-8.664c-3.866 0-7-3.134-7-7s3.134-7 7-7h21.135c2.303 0 4.403-.947 5.929-2.474 1.526-1.526 2.473-3.625 2.473-5.929 0-2.303-.948-4.402-2.473-5.928-1.526-1.526-3.626-2.474-5.929-2.474h-9.648c-6.168 0-11.77-2.519-15.826-6.575-4.057-4.057-6.575-9.659-6.575-15.826 0-6.168 2.518-11.77 6.575-15.827 3.428-3.428 7.959-5.758 13.003-6.397v-8.318c0-3.866 3.134-7 7-7s7 3.134 7 7v8.14h9.959c3.866 0 7 3.134 7 7s-3.134 7-7 7h-21.135c-2.303 0-4.402.948-5.928 2.473-1.526 1.526-2.473 3.626-2.473 5.929s.948 4.402 2.473 5.928c1.526 1.526 3.625 2.474 5.928 2.474h9.648c6.168 0 11.77 2.519 15.827 6.575 4.057 4.057 6.575 9.659 6.575 15.826 0 6.168-2.518 11.77-6.575 15.827-3.719 3.721-8.737 6.146-14.299 6.524z" fill-rule="evenodd"/></svg>