<?xml version="1.0"?>
<svg xmlns="http://www.w3.org/2000/svg" viewBox="0 0 64 64"><g id="_23-Discussion" data-name="23-Discussion"><path d="M21,14a1,1,0,0,1,1-1h8a1,1,0,0,1,0,2H22A1,1,0,0,1,21,14Zm18-4H52a1,1,0,0,0,0-2H39a1,1,0,0,0,0,2Zm0,6h9a1,1,0,0,0,0-2H39a1,1,0,0,0,0,2ZM12,15h6a1,1,0,0,0,0-2H12a1,1,0,0,0,0,2ZM62,52v9a1,1,0,0,1-2,0V52a4.0039,4.0039,0,0,0-4-4H52a4.0039,4.0039,0,0,0-4,4,1,1,0,0,1-1,1H42a2.0027,2.0027,0,0,0-2,2v1h9a2.0027,2.0027,0,0,0,2-2V53a1,1,0,0,1,2,0v1a4.0039,4.0039,0,0,1-4,4H48v3a1,1,0,0,1-2,0V58H18v3a1,1,0,0,1-2,0V58H15a4.0039,4.0039,0,0,1-4-4V53a1,1,0,0,1,2,0v1a2.0027,2.0027,0,0,0,2,2h9V55a2.0027,2.0027,0,0,0-2-2H17a1,1,0,0,1-1-1,4.0039,4.0039,0,0,0-4-4H8a4.0039,4.0039,0,0,0-4,4v9a1,1,0,0,1-2,0V52a6.0042,6.0042,0,0,1,3.9141-5.6185,6,6,0,1,1,8.1763-.0041A6.0189,6.0189,0,0,1,17.917,51H21a7.0038,7.0038,0,0,1,6.5607-6.9777,6,6,0,1,1,8.8786,0A7.0038,7.0038,0,0,1,43,51h3.083A6.0191,6.0191,0,0,1,49.91,46.3774a6,6,0,1,1,8.1763.0041A6.0042,6.0042,0,0,1,62,52ZM14,42a4,4,0,1,0-4,4A4.0039,4.0039,0,0,0,14,42Zm14-2a4,4,0,1,0,4-4A4.0039,4.0039,0,0,0,28,40ZM41,51a5.0059,5.0059,0,0,0-5-5H28a5.0059,5.0059,0,0,0-5,5v.142A3.9955,3.9955,0,0,1,26,55v1H38V55a3.9955,3.9955,0,0,1,3-3.858Zm17-9a4,4,0,1,0-4,4A4.0039,4.0039,0,0,0,58,42ZM6,23V11a4.0039,4.0039,0,0,1,4-4H28V6a4.0039,4.0039,0,0,1,4-4H54a4.0039,4.0039,0,0,1,4,4V18a4.0039,4.0039,0,0,1-4,4H52v4a1,1,0,0,1-.542.89A1.0136,1.0136,0,0,1,51,27a.9946.9946,0,0,1-.5811-.1865L43.68,22H36v1a4.0039,4.0039,0,0,1-4,4H20.32l-6.7392,4.8135A.9993.9993,0,0,1,12,31V27H10A4.0039,4.0039,0,0,1,6,23ZM30,7h2a4.0039,4.0039,0,0,1,4,4v9h8a1,1,0,0,1,.5811.1865L50,24.0566V21a1,1,0,0,1,1-1h3a2.0027,2.0027,0,0,0,2-2V6a2.0027,2.0027,0,0,0-2-2H32a2.0027,2.0027,0,0,0-2,2ZM8,23a2.0027,2.0027,0,0,0,2,2h3a1,1,0,0,1,1,1v3.0566l5.4189-3.87A1,1,0,0,1,20,25H32a2.0027,2.0027,0,0,0,2-2V11a2.0027,2.0027,0,0,0-2-2H10a2.0027,2.0027,0,0,0-2,2Zm4-2H25a1,1,0,0,0,0-2H12a1,1,0,0,0,0,2Z"/></g></svg>
