<svg clip-rule="evenodd" fill-rule="evenodd" height="512" image-rendering="optimizeQuality" shape-rendering="geometricPrecision" text-rendering="geometricPrecision" viewBox="0 0 512 512" width="512" xmlns="http://www.w3.org/2000/svg" xmlns:xodm="http://www.corel.com/coreldraw/odm/2003"><g id="Layer_x0020_1"><g id="_1693272670016"><path d="m256 423.55c-3.39 0-6.14-2.75-6.14-6.14v-50.66c0-3.39 2.75-6.14 6.14-6.14s6.14 2.75 6.14 6.14v50.66c0 3.39-2.75 6.14-6.14 6.14z"/><path d="m333.4 452.04c-3.39 0-6.14-2.75-6.14-6.14 0-9.11-27.76-22.35-71.26-22.35s-71.27 13.24-71.27 22.35c0 3.39-2.75 6.14-6.14 6.14s-6.14-2.75-6.14-6.14c0-7.34 4.63-17.79 26.7-25.91 15.28-5.62 35.47-8.72 56.85-8.72s41.57 3.1 56.85 8.72c22.07 8.12 26.7 18.57 26.7 25.91 0 3.39-2.75 6.14-6.15 6.14z"/><path d="m256 448.43c-3.39 0-6.14-2.75-6.14-6.14v-24.88c0-3.39 2.75-6.14 6.14-6.14s6.14 2.75 6.14 6.14v24.88c0 3.39-2.75 6.14-6.14 6.14z"/><path d="m124.64 169.19h41.4v-59.89c0-15.18 12.35-27.54 27.53-27.54h2.67v-43.34c0-4.26-3.47-7.72-7.73-7.72h-166.11c-4.26 0-7.72 3.46-7.72 7.72v123.04c0 4.26 3.46 7.73 7.72 7.73h63.85.05.04 38.25.03z"/><path d="m131.37 229.23h-51.83-75.85c-2 0-3.69 1.69-3.69 3.69v34.83c0 2 1.69 3.69 3.69 3.69h136.15l.05-.22.02-.07.02-.06.09-.35.11-.35.01-.06.1-.29.03-.11.08-.23.07-.17.02-.06.1-.27.03-.07.04-.11.12-.28.02-.05.14-.33.15-.32.03-.06.03-.06.16-.31.01-.02.37-.68.02-.04.05-.1.16-.26.22-.36.03-.04c.52-.8 1.1-1.55 1.74-2.26l.03-.03.23-.26.06-.05.21-.22.05-.05.11-.11.19-.18.26-.25.04-.03.02-.02.27-.24.02-.02.63-.52.02-.01.31-.24.01-.01.68-.48.02-.02.3-.19.03-.02.27-.17.08-.05.05-.03.26-.16.05-.02.18-.1.18-.11.03-.01.72-.37.02-.01.32-.15.04-.02.01-.01.75-.31.05-.02.35-.13.02-.01.37-.13.03-.01.41-.14.35-.1.04-.01.84-.22.41-.09.4-.07.03-.01.06-.01c.98-.17 1.98-.26 2.99-.26h9.38v-28.94h-34.67z"/><path d="m178.63 109.3v162.5.39l.02.38.02.38.03.38.05.37.05.38.06.37.07.36.08.37.09.35.1.36.1.35.11.35.13.35.13.34.13.33.15.34.15.33.17.32.16.32.18.32.19.31.19.3.2.3.2.3.21.29.22.28.23.28.23.28.24.27.24.26.25.26.26.25.26.24.27.24.27.23.28.23.29.21.29.22.29.2.3.2.31.19.31.18.32.18.32.17.32.16.33.15.33.15.34.14.34.13.35.12.34.11.36.11.35.1.36.08.37.08.36.07.37.06.37.06.38.04.38.03.38.03.38.01.38.01h124.86l.39-.01.38-.01.38-.03.38-.03.37-.04.37-.06.37-.06.37-.07.36-.08.36-.08.36-.1.35-.11c.82-.25 1.6-.58 2.36-.96l.32-.17c4.65-2.54 7.82-7.48 7.82-13.14v-7.33-41.54-.08-35.68-.08-.08-37.59-.08-.08-35.68-.08-.08-4.12c0-8.24-6.7-14.95-14.94-14.95h-115.74l-.16.01-.16-.01h-8.8c-8.24 0-14.94 6.71-14.94 14.95z"/><path d="m181.05 296.32c-.6-.31-1.18-.63-1.75-.98l-1.11-.71-.55-.38-.53-.39-.53-.4-.51-.42-.51-.43-.49-.44-.49-.45-.47-.46-.46-.47-.45-.48-.44-.5-.43-.51-.41-.51-.41-.53-.39-.53-.37-.55-.37-.55-.35-.56-.34-.58-.32-.58-.32-.59-.29-.59-.29-.61-.27-.61-.25-.62-.24-.63-.22-.64-.21-.64-.2-.65-.18-.66-.16-.66-.14-.67-.13-.67-.12-.68-.09-.69-.08-.69-.06-.69-.05-.71-.02-.7-.01-.71v-1.04h-9.38c-2.59 0-4.7 2.11-4.7 4.71v2.27 36.3 10.27c0 2.59 2.11 4.7 4.7 4.7h198.68c2.59 0 4.7-2.11 4.7-4.71v-46.56-2.27-.12-.12l-.01-.12-.01-.12-.01-.12-.02-.12-.02-.11-.02-.12-.03-.11-.02-.12-.03-.11-.04-.11-.03-.11-.04-.11-.04-.11-.05-.1-.04-.11-.05-.1-.05-.1-.05-.1-.06-.1-.06-.1-.06-.1-.06-.09-.07-.1-.06-.09-.07-.09-.07-.08-.07-.09-.08-.08-.08-.09-.08-.08-.08-.08-.08-.07-.08-.08-.09-.07-.09-.07-.09-.07-.09-.07-.09-.06-.1-.07-.09-.06-.1-.05-.1-.06-.1-.05-.1-.06-.11-.04-.1-.05-.11-.04-.11-.04-.1-.04-.12-.04-.11-.03-.11-.03-.11-.03-.12-.03-.11-.02-.12-.02-.12-.01-.11-.01-.12-.02h-.12l-.12-.01h-.12-9.38v1.04c0 15.19-12.35 27.54-27.53 27.54h-124.86l-.71-.01-.7-.03-.7-.04-.7-.07-.69-.08-.69-.09-1.35-.25-.67-.14-.66-.16-.66-.18-.65-.19-.64-.21-.64-.23-.62-.24-.63-.25-.61-.27-.61-.28z"/><path d="m139.36 307.74v-23.7h-129.37v197.26h23.71v-167.26c0-3.48 2.82-6.3 6.29-6.3z"/><path d="m236.25 341.6v33.17h19.75 19.75v-33.17z"/><path d="m256 443.66c-7.83 0-14.21 6.37-14.21 14.2s6.38 14.21 14.21 14.21 14.21-6.37 14.21-14.21c0-7.83-6.38-14.2-14.21-14.2z"/><path d="m177.34 473.92c8.85 0 16.06-7.2 16.06-16.06 0-8.85-7.21-16.05-16.06-16.05-8.86 0-16.06 7.2-16.06 16.05 0 8.86 7.2 16.06 16.06 16.06z"/><path d="m320.29 457.86c0 7.83 6.37 14.21 14.2 14.21 7.84 0 14.21-6.37 14.21-14.21 0-7.83-6.37-14.2-14.21-14.2-7.83 0-14.2 6.37-14.2 14.2z"/><path d="m478.3 314.04v167.26h23.71v-197.26h-129.37v23.7h99.37c3.47 0 6.29 2.82 6.29 6.3z"/><path d="m372.16 271.44h136.15c2 0 3.69-1.69 3.69-3.69v-34.83c0-2-1.69-3.69-3.69-3.69h-162.35v28.94h9.38l.84.02.15.01.26.02.15.01.26.02.1.01.12.01.32.04.05.01.38.05.36.06.06.01.3.06.13.02.06.02.33.07.07.01.32.08.08.02.39.11.04.01.35.11h.01l.09.03.69.23.06.03.31.11.05.02.15.06.24.1.1.04.29.13.04.02.32.15.02.01c.36.18.72.36 1.07.56l.08.05.27.16.05.03.08.05.27.17.03.02.3.19.03.03.66.47.02.01.31.24.02.01.63.52.02.02.27.24.02.02.04.03.26.25.19.18.05.05.15.15.11.11.16.17.03.03.19.2.01.02.5.58.03.03.27.33.45.6.04.06.07.11.17.23.04.06.19.3.19.3.03.05.15.26.06.1.03.05.15.27.06.11.15.29.01.02.15.3.04.07.02.06.16.32.14.33.02.05.12.28.04.11.03.06.11.31.03.07.09.26.03.1.04.11.1.29.01.06.11.35.09.35.02.06.02.08.05.21z"/><path d="m345.96 216.63h151.36v-23.25h-151.36z"/><path d="m345.96 180.79h151.36v-25.15h-151.36z"/><path d="m345.96 143.05h151.36v-23.26h-151.36z"/><path d="m138.76 209.24c0-4.07-3.31-7.39-7.39-7.39h-6.75-38.32-6.76c-4.08 0-7.39 3.32-7.39 7.39 0 4.08 3.31 7.39 7.39 7.39h51.83c4.08 0 7.39-3.31 7.39-7.39z"/><path d="m92.59 189.26h25.73v-13.26h-25.73z"/></g></g></svg>