<svg id="Capa_1" enable-background="new 0 0 512 512" height="512" viewBox="0 0 512 512" width="512" xmlns="http://www.w3.org/2000/svg"><g><path d="m166.049 181.628h-166.049v94.542h229.462z"/><path d="m183.164 334.774c56.856 0 103.113 46.256 103.113 103.113 0 4.053-.24 8.052-.697 11.984h69.185v-57.401h-46.331v-30h46.331v-14.3c0-23.196-18.804-42-42-42h-312.765v143.702h80.748c-.457-3.933-.697-7.931-.697-11.984 0-56.857 46.256-103.114 103.113-103.114z"/><path d="m436.328 224.469h-30v257.531h-129.994-33.656c9.166-12.334 14.599-27.6 14.599-44.113 0-40.866-33.247-74.113-74.113-74.113s-74.113 33.247-74.113 74.113c0 16.513 5.433 31.779 14.599 44.113h-33.656-89.994v30h512v-30h-75.672z"/><path d="m423.199 62.677h-13.518v27.849c5.084-.025 10.293-.045 13.518-.045 7.843 0 14.468-6.366 14.468-13.901 0-7.537-6.625-13.903-14.468-13.903z"/><path d="m316.531 0v195.469h195.469v-195.469zm106.668 120.48c-3.17 0-8.408.021-13.518.046v40.474h-30v-128.323h43.518c24.52 0 44.468 19.694 44.468 43.902s-19.948 43.901-44.468 43.901z"/></g></svg>