<svg id="deal_key" viewBox="0 0 64 64" xmlns="http://www.w3.org/2000/svg"><path d="m20.42 21.91c3.89 0 7.34-2.22 8.97-5.71h6.54c.27 0 .52-.1.71-.29l2.2-2.21 2.2 2.21c.18.19.44.29.7.29h.99c.27 0 .52-.1.71-.29l2.2-2.21 2.21 2.21c.19.19.44.29.71.29h2.65c.44 0 .83-.28.96-.7l1.2-3.9c.28-.92.11-1.9-.46-2.67-.57-.78-1.45-1.22-2.41-1.22h-21.11c-1.57-3.35-4.87-5.56-8.58-5.7-2.62-.1-5.16.86-7.13 2.7-1.97 1.85-3.1 4.32-3.18 6.96-.07 2.72.93 5.29 2.82 7.23 1.88 1.94 4.41 3.01 7.1 3.01zm-1-13.86c2.15 0 3.9 1.75 3.9 3.9s-1.75 3.91-3.9 3.91-3.89-1.75-3.89-3.91 1.75-3.9 3.89-3.9z"/><path d="m59.39 38.96-10.29-13.74c-.76-1.01-2.22-1.23-3.25-.49l-2.85 2.04c-.51.36-.84.9-.93 1.52-.06.39-.01.77.12 1.13-1.09.33-2.89.73-4.98.61-1.8-.1-3.54.05-5.2.43-1.67-.38-3.43-.53-5.22-.43-2.08.12-3.89-.28-4.98-.61.13-.36.18-.74.12-1.13-.09-.62-.42-1.16-.93-1.52l-2.85-2.04c-1.03-.74-2.49-.52-3.26.5l-10.28 13.73c-.37.5-.52 1.11-.43 1.73.1.61.43 1.15.94 1.52l2.84 2.04c.41.29.89.44 1.37.44.72 0 1.43-.33 1.89-.94l.21-.28c.88 1.64 2.09 3.37 3.62 5.19-.37.46-.57.93-.61 1.42-.1 1.3.42 2.63 1.4 3.54.77.73 1.76 1.12 2.78 1.12.11 0 .22-.01.34-.02.18.92.65 1.78 1.35 2.44.79.75 1.81 1.15 2.86 1.15h.12c.21.84.64 1.63 1.3 2.22.77.71 1.72 1.08 2.73 1.08.18 0 .37-.01.55-.04.73-.1 1.51-.49 2.33-1.12 2.77 1.03 4.95 1.55 6.65 1.55.96 0 1.77-.17 2.44-.5 1.39-.68 1.93-1.92 2.24-2.94.44.05.86.09 1.25.09.95 0 1.74-.16 2.4-.48 1.45-.69 1.99-1.98 2.3-3.02.13-.45.16-.91.11-1.38.1.01.2.02.29.02.95 0 1.75-.16 2.41-.48 1.45-.69 1.98-1.98 2.29-3.03.58-1.98-.77-3.71-1.55-4.5.19-.61.62-1.65 1.44-2.45l.31.42c.46.61 1.17.94 1.89.94.48 0 .96-.15 1.37-.44l2.84-2.04c.51-.37.84-.91.94-1.52.09-.62-.06-1.23-.43-1.73zm-40.26 13.7c-.08.03-.16.05-.24.06-.82.12-1.41-.3-1.68-.56-.53-.49-.83-1.23-.77-1.92.01-.22.53-.98 2.71-1.93.75-.33 1.65-.12 2.17.52.38.46.47 1.06.31 1.62-1.29.7-2.12 1.44-2.5 2.21zm4.34 3.63c-.65.09-1.29-.11-1.79-.59-.57-.52-.87-1.28-.81-2.03.02-.27.64-1.06 2.83-2.03.26-.11.52-.16.79-.16.57 0 1.14.25 1.52.72.28.34.42.76.42 1.17 0 .48-.18.96-.54 1.32-1.28 1.28-2.07 1.55-2.42 1.6zm6.43 1.76c-.88.9-1.73 1.46-2.3 1.54-.61.08-1.2-.11-1.67-.54-.38-.35-.64-.81-.74-1.31.67-.37 1.38-.9 2.12-1.64.28-.29.5-.62.68-.96.72-.25 1.54-.04 2.04.57.57.69.52 1.7-.13 2.34zm20.76-8.33c-.24.84-.55 1.46-1.23 1.79-1.03.49-3.45.57-9.18-1.81-.5-.21-1.09.03-1.31.54-.21.51.03 1.09.54 1.3 2.36.99 4.35 1.64 6.01 1.97.15.39.17.74.07 1.07-.25.84-.55 1.46-1.24 1.79-1.02.49-3.45.57-9.18-1.81-.51-.21-1.1.03-1.31.54s.03 1.09.54 1.31c1.98.82 3.69 1.4 5.17 1.77-.23.7-.53 1.23-1.13 1.53-.83.41-2.66.56-6.62-.82.91-1.35.86-3.15-.21-4.46-.8-.96-1.99-1.45-3.17-1.4-.07-.74-.34-1.47-.85-2.09-.94-1.16-2.44-1.66-3.86-1.37-.08-.72-.35-1.42-.83-2.01-1.1-1.33-2.96-1.77-4.53-1.08-.68.29-1.26.6-1.76.9-1.69-2.02-2.99-3.97-3.81-5.7l7.88-10.53c1.14.4 3.47 1.03 6.26.88.33-.02.66-.03.99-.03-.12.07-.24.12-.36.19-2.01 1.15-4.09 1.96-6.03 2.66-.61.22-1.11.69-1.36 1.29-.24.58-.23 1.24.03 1.81.62 1.33 2.53 4.25 6.87 2.44 6.7-2.8 10.16-.03 13.84 2.9 2.38 1.9 4.85 3.87 8.1 3.87.18 0 .37-.03.55-.04.48.48 1.42 1.58 1.12 2.6zm-1.53-4.57c-2.63.07-4.66-1.57-7-3.43-3.78-3.01-8.07-6.44-15.85-3.18-2.04.85-3.44.39-4.28-1.44-.03-.06-.03-.12-.01-.19.04-.08.11-.15.2-.18 2.02-.73 4.2-1.57 6.34-2.8 2.49-1.42 5.45-2.08 8.56-1.9 2.8.15 5.12-.48 6.26-.88l7.91 10.57c-1.23 1.11-1.85 2.56-2.13 3.43z"/></svg>