<svg id="Layer_1" enable-background="new 0 0 512 512" viewBox="0 0 512 512" xmlns="http://www.w3.org/2000/svg"><path d="m145 158.6h19.4c2.3 9 5.9 17.6 10.5 25.3l-13.8 13.8c-2.3 2.3-2.3 6.2 0 8.6l24.1 24.1c2.4 2.4 6.3 2.4 8.7 0l13.7-13.8c7.8 4.7 16.3 8.2 25.3 10.5v19.4c0 3.4 2.7 6.1 6.1 6.1h34c3.4 0 6.1-2.8 6.1-6.1v-19.4c9-2.3 17.5-5.9 25.3-10.5l13.7 13.8c2.4 2.4 6.3 2.4 8.7 0l24-24.1c2.4-2.4 2.4-6.3 0-8.6l-13.7-13.8c4.7-7.7 8.2-16.3 10.5-25.3h19.4c3.4 0 6.1-2.7 6.1-6.1v-34c0-3.4-2.8-6.1-6.1-6.1h-19.4c-2.3-9-5.9-17.5-10.5-25.3l13.7-13.7c2.4-2.4 2.4-6.3 0-8.6l-24-24.1c-2.4-2.4-6.3-2.4-8.7 0l-13.7 13.7c-7.8-4.7-16.3-8.2-25.3-10.5v-19.4c0-3.4-2.8-6.1-6.1-6.1h-34c-3.4 0-6.1 2.7-6.1 6.1v19.5c-9 2.2-17.5 5.8-25.3 10.5l-13.7-13.7c-2.4-2.4-6.3-2.4-8.7 0l-24.1 24.1c-2.3 2.3-2.3 6.2 0 8.6l13.8 13.7c-4.7 7.8-8.2 16.3-10.5 25.3h-19.4c-3.4 0-6.1 2.8-6.1 6.1v34c0 3.3 2.8 6 6.1 6zm111-80.1c31.5 0 57.1 25.5 57.1 57.1-3 75.6-111.1 75.6-114 0-.1-31.6 25.4-57.1 56.9-57.1zm82.9 189.5h98c8 0 15.4 4.8 19.5 12.7 0 .1 19.7 39 19.8 39 0 .1 4.5 8.8 4.4 8.9h-113.9l-.1-.1h-.1l-14-27.8c-6.6-12.9-19.1-20.8-32.7-20.6 4.1-7.6 11.3-12.1 19.1-12.1zm-337.5 49.1c5 .4 19.2-1.3 22.8 1.7 0 .1-4.9 9.6-4.9 9.6-.1 0-6.3 0-6.7 0-5.7.1-10.5-4.9-11.2-11.3zm475.8 52.3c1 2.1.6 4.8 1.3 7-.3-.7-.5-1.4-.5-2.2-.2 15.9-20.6 15.8-20.9 0 0 .5-.1 1.1-.3 1.6.2-5.3 2.1-11.4 7.7-13.2 3.3-1.2 7.1-.2 9.6 2.2.1 0 .1.1.1.1 1.4 1.3 2.4 2.8 3 4.5zm27.5 68.4c.6-.6 1.2-1.2 1.7-1.8-.1 2.8 1 9.5-3.1 9.6h-24.2c-.9 0-1.7-.5-2.3-1.2 3.2-.1 13.5.3 16.4-.4 4.3-1 8.3-3.2 11.5-6.2zm6.3-70.4-4.3 25.7-.1.5-4.6 27c-1.2 7.4-6.7 12.8-13 12.8h-78l1.5-8.6h21c3.7.1 6.6-4.1 5-7.5 0 0-6.6-15.4-6.6-15.4-2.8-6.5-8.8-11.7-16.5-14v-.1c.1-.1 0-.1 0-.2-.1-.1-.1-.2-.1-.2.1-.1.1-.1 0-.1-.8-2.6-1.7-5.3-3-7.8h34.7c5.4 23.5 36.9 22.8 41.4-.8-1.8.2-3.7 1-5.5.7 10.3-.6 20.2-5.5 28.1-12zm-89.1 38.7 3.3 7.9h-10.9l1.7-9.9c0-.1 0-.2.1-.2.2-1.2.3-2.4.4-3.6 2.4 1.4 4.3 3.5 5.4 5.8zm-24 76c.7-.7 1.2-1.4 1.8-2.2-.3 3.9 1.6 13.4-4.2 13.6h-27.5c-1.6 0-3.1-1.1-3.8-2.8 2.3-.1 16 .2 18-.2 6.1-.7 11.7-3.9 15.7-8.4zm-30.8-74.6c4.9 20.7-23.2 26.9-24.6 4.4.1-16.5 20.2-19.8 24.6-4.4zm10.6-2.1c-2.8-13.4-18.2-23-31.2-17-7.4 3-12.8 10.3-14.4 18.1h-135.2c-.4-2.1-1-4.2-2-6.1-9.9-20.8-38-17-43.5 5-10.4-2.7-19.6-9.2-26.4-17.5 0-.1 0-.1.1-.1 0-.1 0-.1.1-.2v-.1c.1-.1.1-.2.1-.2 1.3-3.5 3.4-6.9 6.1-9.4 4.3-4.6 10.4-6.2 16.4-6.5 1.6.6 232.4 0 234.2.2 5.9-.2 11.6 2.2 15.7 6.3h.1c2.8 2.8 4.9 6.2 6.2 9.9-2.4 2.9-5.1 5.8-8.1 8.1-.3.3-.6.5-.9.7-.2.2-.3.3-.4.3-1.2 1-2.5 1.8-3.9 2.8h-.1c-3.9 2.6-8.3 4.5-12.9 5.7zm-265-8.4c0 .3 0 .8.1 1-.1.1-.1.1 0 .1-.1.1-.1.1 0 .1-.1.1-.1.1 0 .1-.1.1-.1.1 0 .1-.1 3.7 1.7 11.7 2.2 15.5h-28.2l3.4-7.9c2.3-5.4 9.3-9.1 17.1-9.1h5.4zm288.1 9c-1.4 1-2.8 2-4.3 3h-.1c-5.7 3.5-11.9 6.1-18.4 7.5-4.6 26.7-40.4 27.5-45.8.9 2.1-.1 6.2.5 7.9-1-1.5 1.4-6 .8-7.9.9h-135.1c-1.8-.1-6.4.5-7.9-.9 1.6 1.5 5.9.8 7.9 1-5.5 26.6-41.2 25.9-45.8-.9-10.2-2.2-19.5-7.2-27.3-14.1 0 .1 2.8 16.2 2.8 16.4.1 0 .1.1.1.1s0 0-.1.1c1.7 9.8 6.1 35.6 7.9 45.8 1.5 8.8 8 15.2 15.4 15.2h229.2c7.5 0 14-6.4 15.4-15.2l5.1-30.1s2.7-15.2 2.7-15.2c0-.2 0-.3.1-.5-.1-.1-.1-.1-.1-.1s0 0 .1-.1c0-.2 2.8-16.2 2.8-16.4-1.5 1.3-3.1 2.5-4.6 3.6zm-80 60.2c-1 1.5-2.7 2.4-4.6 2.4h-103.2c-3.8.1-6.6-4.1-5-7.5 0 0 7.4-17.5 7.4-17.5 4.4-10.3 16.5-17.3 30-17.3h38.5c13.5 0 25.6 6.9 30 17.3 0 0 7.4 17.5 7.4 17.5.7 1.7.5 3.6-.5 5.1zm-170.7 24.5h15c-.7 1.7-2.2 2.8-3.8 2.8h-27.5c-5.9-.2-3.9-9.7-4.2-13.6 4.7 6.6 12.3 10.8 20.5 10.8zm-127-46.4h12.1c-.5.8-1.4 1.2-2.2 1.2h-24.3c-4.1-.1-3-6.8-3.1-9.6 4.3 5.2 10.7 8.4 17.5 8.4zm93.7-19.5 1.5 8.6h-95.2c-6.3 0-11.8-5.4-13-12.8l-4.6-26.8-4.5-26.4c6.5 5.3 14.2 9.5 22.5 11.3 4.5 23.7 36.1 24.5 41.5.9h52c-1.1 2-2 4.3-2.6 6.6v.1h-7.2c-12.2 0-23 6.3-27 15.7l-6.6 15.4c-.7 1.7-.5 3.6.5 5.1s2.7 2.4 4.5 2.4h38.2zm-59.9-69.2c-2-1.5-4.2-2.8-6.5-3.5-.1-.1-.1-.1-.1 0-3.6-1.3-7.7-1.2-11.3-.2-7.2 2-12.9 8.2-15 15.4-.1.1-.1.2-.1.3 0 0-.1 0-.1.1-6.9-2-13.4-5.8-18.4-10.9-.1 0-.2-.1-.2-.2-1.3-1.2-2.3-2.5-3.4-3.7 3.3-9 11.4-14.3 20.3-13.5h135c-.1 0-2.8 5.6-2.9 5.7 0 0-10.9 16-10.9 16v.1c-6.6.7-12.8 3.4-17.8 7.7-.1 0-60.5 0-60.6 0-1.1-5.3-3.9-10-8-13.3zm301.5-19.5c2.8 5.5 9.8 19.3 12.5 24.7h-212.5c3.1-6.2 9.5-18.6 12.6-24.8 0 0 15.4-30.4 15.4-30.4 1.7-3.2 4-6.3 6.8-8.7 4.4-3.8 10.1-6.1 15.9-6.1h111.1c5.1.1 10.1 1.6 14.1 4.8.1 0 .1.1.2.1 7.8 4.6 14.7 23.4 19.1 31 .2.5 4.4 8.7 4.8 9.4zm134.2-7.7-4.9-9.6s.1 0 .1-.1c3.7-2.9 18.3-1.3 22.8-1.7-.8 6.4-5.5 11.4-11.3 11.4-.3.1-6.5.1-6.7 0zm-13.2 26.6c-5-3.6-11.8-4.9-17.7-2.8-.1-.1-.1-.1-.1 0-1.5.4-2.9 1-4.2 1.9-.3.1-.6.5-1 .6-4.9 3.2-8.2 8.4-9.5 14.1h-43.3c-3.4-3-7.4-5.2-11.7-6.5-.1-.1-.1-.1-.2-.1-2.8-.9-5.8-1.2-8.7-1.4-.1-.1-10.9-21.5-11-21.6h116.9.9c8.8-.7 16.9 4.6 20.3 13.5-5.6 7-13.5 12.4-22.1 14.8-1.3-4.7-3.9-8.8-7.6-11.8-.2-.2-.4-.4-.7-.5-.1-.1-.2 0-.3-.2zm-424.6 19.1c0 .8.1 1.5.4 2.2-.3-.5-.4-1-.5-1.6-.7 15.1-20 15.2-20.9.1-.6-7.8 7.3-15.8 14.8-11.5.2 0 .2.1.4.3.1 0 .1 0 .2.1h.1c.3.2.5.3.8.6.7.5 1.4 1.1 1.9 1.9 1.9 2 2.8 4.9 2.8 7.9zm107.8-45.6h-131.2c2.8-5.3 21.1-41.6 24.3-47.8 4-7.9 11.4-12.7 19.4-12.7h98c9.1-.2 17.2 6.7 20.9 15.5-.9.4-1.7.9-2.5 1.4-1.8 1.1-3.5 2.2-5.1 3.6h-.1c-8.8 6.5-18.3 30.6-23.6 39.9zm-48.5 58.6c-.1.2-.1.4-.2.5.1-.1.1-.3.2-.5zm72.5 22.4c2.5 20.1-24 23.3-24.9 2.4 0 .8-.2 1.6-.5 2.3.8-2.1.3-4.5 1-6.6.7-2.7 2.3-5.2 4.3-7.1 7.8-7.1 19.2-.7 20.1 9zm-72.4-22.5c.1-.3.1-.5.2-.8h.2c-.2.2-.4.5-.4.8zm45.5 29c-.2.1-.3.2-.4.3.2-.1.3-.2.4-.3zm-7.3.8c1.3.2 2.6.5 3.8.5-1.2.1-2.5-.3-3.8-.5zm215.4-3.7c.2.8.5 1.5.9 2.1-.5-.7-.8-1.4-.9-2.1zm6.1 4.1c1-.2 2-.3 3-.5-1.4.2-2.8.7-4.2.5.4.1.8.1 1.2 0zm-4.4-1.2c.2.1.3.2.4.3-.1 0-.2-.1-.4-.3zm-65.6 31.9 4.2 9.9h-86.9l4.2-9.9c2.7-6.3 10.9-10.7 20-10.7h38.5c9 0 17.3 4.4 20 10.7z"/></svg>