<svg id="Layer_1" enable-background="new 0 0 512 512" viewBox="0 0 512 512" xmlns="http://www.w3.org/2000/svg"><path d="m207.256 240.88c0-26.878 21.867-48.745 48.744-48.745s48.744 21.867 48.744 48.745c0 26.877-21.867 48.744-48.744 48.744s-48.744-21.867-48.744-48.744zm167.681 133.419c26.878 0 48.744-21.867 48.744-48.745 0-26.877-21.867-48.744-48.744-48.744s-48.744 21.867-48.744 48.744 21.867 48.745 48.744 48.745zm38.785 13.972h-77.568c-11.867 0-23.185 6.188-31.858 17.416-9.082 11.767-14.093 27.446-14.093 44.144v34.493h169.488v-34.493c0-16.697-5-32.367-14.102-44.144-8.683-11.228-20.001-17.416-31.867-17.416zm-237.276-13.952c17.546.22 33.295 9.96 44.154 25.33h70.821c10.859-15.37 26.598-25.111 44.133-25.33-14.222-11.508-23.344-29.093-23.344-48.765 0-5.539.739-10.909 2.086-16.029-6.108-3.892-12.775-5.928-19.512-5.928h-77.568c-6.737 0-13.404 2.036-19.512 5.928 1.347 5.12 2.086 10.49 2.086 16.029 0 19.671-9.122 37.257-23.344 48.765zm-.599 13.952h-77.569c-11.866 0-23.184 6.188-31.858 17.416-9.082 11.767-14.092 27.446-14.092 44.144v34.493h169.498v-34.493c0-16.697-5.01-32.377-14.102-44.144-8.673-11.228-19.99-17.416-31.877-17.416zm-87.499-62.717c0 26.878 21.857 48.745 48.715 48.745 26.877 0 48.744-21.867 48.744-48.745 0-26.877-21.867-48.744-48.744-48.744-26.858-.001-48.715 21.866-48.715 48.744zm-2.036-98.318h-64.733c-11.617 0-21.079-9.451-21.079-21.069v-66.43c0-11.627 9.461-21.079 21.079-21.079h112.23c11.608 0 21.049 9.451 21.049 21.079v66.43c0 11.617-9.441 21.069-21.049 21.069h-9.362v22.157c0 2.845-1.727 5.41-4.371 6.478-.848.339-1.737.509-2.615.509-1.856 0-3.683-.738-5.03-2.126zm-8.633-44.403 9.352 9.342c1.357 1.367 3.153 2.046 4.94 2.046s3.573-.679 4.941-2.046c2.725-2.725 2.725-7.146 0-9.881l-9.352-9.342 9.352-9.352c2.725-2.725 2.725-7.146 0-9.881-2.735-2.725-7.156-2.725-9.881 0l-9.352 9.352-9.342-9.352c-2.734-2.725-7.156-2.725-9.881 0-2.734 2.735-2.734 7.156 0 9.881l9.342 9.352-9.342 9.342c-2.734 2.735-2.734 7.156 0 9.881 1.358 1.367 3.154 2.046 4.941 2.046s3.573-.679 4.94-2.046zm433.821-43.095v66.43c0 11.617-9.441 21.069-21.049 21.069h-64.743l-26.149 27.017c-1.337 1.387-3.164 2.126-5.02 2.126-.878 0-1.767-.17-2.615-.509-2.645-1.068-4.371-3.633-4.371-6.478v-22.157h-9.332c-11.627 0-21.079-9.451-21.079-21.069v-66.43c0-11.627 9.452-21.079 21.079-21.079h112.231c11.607.001 21.048 9.452 21.048 21.08zm-50.791 13.982c-2.734-2.725-7.156-2.725-9.89 0l-23.634 23.644-9.372-9.362c-2.734-2.725-7.156-2.725-9.891.01-2.724 2.735-2.714 7.156.01 9.881l14.322 14.292c1.367 1.357 3.144 2.036 4.93 2.036 1.796 0 3.583-.679 4.95-2.046l28.574-28.574c2.726-2.725 2.726-7.146.001-9.881zm-275.66-38.545v-66.42c0-11.627 9.451-21.079 21.079-21.079h112.23c11.617 0 21.069 9.451 21.069 21.079v66.42c0 11.627-9.451 21.079-21.069 21.079h-35.072l-14.98 25.989c-1.248 2.156-3.553 3.493-6.048 3.493 0 0 0 0-.01 0-2.495 0-4.8-1.327-6.048-3.493l-15.011-25.989h-35.061c-11.628 0-21.079-9.451-21.079-21.079zm50.82-28.264 14.282 14.282c1.317 1.307 3.094 2.046 4.94 2.046 1.857 0 3.633-.739 4.941-2.046l28.574-28.574c2.735-2.725 2.735-7.156 0-9.881-2.725-2.734-7.146-2.734-9.881 0l-23.634 23.634-9.342-9.352c-2.725-2.725-7.156-2.725-9.881 0-2.733 2.735-2.733 7.156.001 9.891z"/></svg>